<svg width="500" height="500" xmlns="http://www.w3.org/2000/svg">
 <title>B</title>

 <g>
  <title>Layer 1</title>
  <path id="svg_1" fill="#ebebeb" d="m448.31,449c0,11.28 -88.78,20.42 -198.31,20.42s-198.31,-9.11 -198.31,-20.42s88.78,-20.39 198.31,-20.39s198.31,9.14 198.31,20.39z"/>
  <path id="svg_2" fill="#263238" d="m334.52,52.69l-169.06,0a17.26,17.26 0 0 0 -17.1,17.42l0,348a17.27,17.27 0 0 0 17.1,17.42l169.06,0a17.29,17.29 0 0 0 17.12,-17.42l0,-348a17.28,17.28 0 0 0 -17.12,-17.42zm6.42,354.67c0,9.16 -6.86,16.57 -15.32,16.57l-151.24,0c-8.48,0 -15.34,-7.41 -15.34,-16.57l0,-324.06c0,-18.66 6.86,-19.57 15.34,-19.57l30.3,0c1.76,0 3.2,2 3.2,4.48l0,1.07c0,5.81 3.18,5.83 7.08,5.83l70.04,0c3.94,0 7.1,0 7.1,-5.83l0,-1.07c0,-2.48 1.42,-4.48 3.21,-4.48l30.29,0c8.46,0 15.32,2.48 15.32,19.57l0.02,324.06z"/>
  <path id="svg_3" fill="#fff" d="m340.94,83.3l0,324.06c0,9.16 -6.86,16.57 -15.32,16.57l-151.24,0c-8.48,0 -15.34,-7.41 -15.34,-16.57l0,-324.06c0,-18.66 6.86,-19.57 15.34,-19.57l30.3,0c1.76,0 3.2,2 3.2,4.48l0,1.07c0,5.81 3.18,5.83 7.08,5.83l70.04,0c3.94,0 7.1,0 7.1,-5.83l0,-1.07c0,-2.48 1.42,-4.48 3.21,-4.48l30.29,0c8.48,0 15.34,2.48 15.34,19.57z"/>
  <path id="svg_4" fill="#fff" d="m340.94,83.3l0,324.06c0,9.16 -6.86,16.57 -15.32,16.57l-151.24,0c-8.48,0 -15.34,-7.41 -15.34,-16.57l0,-324.06c0,-18.66 6.86,-19.57 15.34,-19.57l30.3,0c1.76,0 3.2,2 3.2,4.48l0,1.07c0,5.81 3.18,5.83 7.08,5.83l70.04,0c3.94,0 7.1,0 7.1,-5.83l0,-1.07c0,-2.48 1.42,-4.48 3.21,-4.48l30.29,0c8.48,0 15.34,2.48 15.34,19.57z"/>
  <path id="svg_5" fill="#d53f8c" d="m340.94,83.3l0,28.85l-181.94,0l0,-28.85c0,-18.66 6.86,-19.57 15.34,-19.57l30.3,0c1.76,0 3.2,2 3.2,4.48l0,1.07c0,5.81 3.18,5.83 7.08,5.83l70.08,0c3.94,0 7.1,0 7.1,-5.83l0,-1.07c0,-2.48 1.42,-4.48 3.21,-4.48l30.29,0c8.48,0 15.34,2.48 15.34,19.57z"/>
  <g id="svg_6" fill="#fff">
   <path id="svg_7" d="m199.45,71l-0.29,0.29c-0.06,0 -0.11,0.11 -0.17,0.17a4,4 0 0 0 -5.64,0l-0.16,-0.17l-0.29,-0.29l0.37,-0.32a4.06,4.06 0 0 1 0.86,-0.55a4.18,4.18 0 0 1 1.13,-0.38c0.19,0 0.38,0 0.57,-0.08s0.48,0 0.5,0l0.38,0a4.51,4.51 0 0 1 1,0.25a4.58,4.58 0 0 1 0.71,0.33a5.35,5.35 0 0 1 0.67,0.47l0.31,0.28l0.05,0z"/>
   <path id="svg_8" d="m194.27,72.39c-0.15,-0.16 -0.3,-0.31 -0.46,-0.46a3.32,3.32 0 0 1 4.71,0l-0.46,0.46a2.61,2.61 0 0 0 -1.89,-0.78a2.66,2.66 0 0 0 -1.9,0.78z"/>
   <path id="svg_9" d="m197.6,72.85l-0.46,0.46a1.38,1.38 0 0 0 -1.94,0l-0.46,-0.46a2,2 0 0 1 2.86,0z"/>
   <path id="svg_10" d="m196.58,73.73a0.41,0.41 0 0 1 -0.41,0.41a0.42,0.42 0 1 1 0,-0.83a0.41,0.41 0 0 1 0.41,0.42z"/>
  </g>
  <path id="svg_11" fill="#fff" d="m170.9,71.89a1.21,1.21 0 1 1 1.21,1.21a1.21,1.21 0 0 1 -1.21,-1.21zm3.8,0a1.21,1.21 0 1 1 1.21,1.21a1.21,1.21 0 0 1 -1.21,-1.21zm3.8,0a1.21,1.21 0 1 1 1.2,1.21a1.2,1.2 0 0 1 -1.2,-1.21zm3.8,0a1.21,1.21 0 1 1 1.2,1.21a1.2,1.2 0 0 1 -1.2,-1.21zm3.79,0a1.21,1.21 0 1 1 1.21,1.21a1.21,1.21 0 0 1 -1.21,-1.21zm141.21,2.63l-9.82,0l0,-4.52l9.82,0l0,4.52zm-9.3,-0.52l8.82,0l0,-3.52l-8.82,0l0,3.52z"/>
  <path id="svg_12" d="m318.3,70.75l6.33,0l0,3l-6.33,0l0,-3zm9,0.29l0.87,0l0,2.43l-0.87,0l0,-2.43zm-151.68,30.43l-5.37,-5.03l5.37,-5.03l0.84,0.88l-4.43,4.15l4.43,4.15l-0.84,0.88zm148.76,-10.06l5.37,5.03l-5.37,5.03l-0.84,-0.88l4.43,-4.15l-4.43,-4.15l0.84,-0.88zm-100.92,4.83a3.3,3.3 0 0 1 3.3,-3.24a3.39,3.39 0 0 1 2.08,0.7a0.54,0.54 0 0 1 0.09,0.72a0.53,0.53 0 0 1 -0.72,0.1a2.28,2.28 0 0 0 -1.45,-0.5a2.41,2.41 0 0 0 -1.62,0.65a2.23,2.23 0 0 0 -0.66,1.57a2.19,2.19 0 0 0 0.66,1.57a2.4,2.4 0 0 0 1.62,0.64a2.29,2.29 0 0 0 1.45,-0.49a0.55,0.55 0 0 1 0.72,0.1a0.54,0.54 0 0 1 -0.09,0.72a3.39,3.39 0 0 1 -2.08,0.7a3.28,3.28 0 0 1 -3.3,-3.24zm10.29,1.76l-2.19,0l-0.44,1.18a0.51,0.51 0 0 1 -0.46,0.31a0.52,0.52 0 0 1 -0.18,0a0.51,0.51 0 0 1 -0.29,-0.65l2,-5.3a0.52,0.52 0 0 1 0.95,0l2,5.3a0.51,0.51 0 0 1 -0.3,0.65a0.43,0.43 0 0 1 -0.17,0a0.5,0.5 0 0 1 -0.46,-0.31l-0.46,-1.18zm-0.37,-1l-0.73,-1.93l-0.73,1.93l1.46,0zm5.93,-2.82l-1.44,0l0,4.82a0.49,0.49 0 0 1 -0.49,0.5a0.5,0.5 0 0 1 -0.5,-0.5l0,-4.8l-1.42,0a0.5,0.5 0 0 1 -0.49,-0.51a0.48,0.48 0 0 1 0.49,-0.49l3.85,0a0.48,0.48 0 0 1 0.49,0.49a0.51,0.51 0 0 1 -0.49,0.49zm4.33,3.82l-2.18,0l-0.46,1.17a0.51,0.51 0 0 1 -0.46,0.31a0.43,0.43 0 0 1 -0.17,0a0.5,0.5 0 0 1 -0.3,-0.65l2,-5.3a0.52,0.52 0 0 1 1,0l2,5.3a0.5,0.5 0 0 1 -0.3,0.65a0.4,0.4 0 0 1 -0.17,0a0.51,0.51 0 0 1 -0.46,-0.31l-0.5,-1.17zm-0.37,-1l-0.73,-1.93l-0.72,1.93l1.45,0zm2.97,2l0,-5.33a0.5,0.5 0 0 1 1,0l0,4.81l2.44,0a0.51,0.51 0 0 1 0.5,0.5a0.51,0.51 0 0 1 -0.5,0.5l-2.94,0a0.5,0.5 0 0 1 -0.5,-0.48zm9.68,-5a3.31,3.31 0 0 1 0,4.56a3,3 0 0 1 -2.15,1a3.06,3.06 0 0 1 -2.21,-1a3.37,3.37 0 0 1 0,-4.56a3,3 0 0 1 2.21,-1a2.92,2.92 0 0 1 2.15,1zm-0.12,2.28a2.35,2.35 0 0 0 -0.61,-1.58a2,2 0 0 0 -1.42,-0.64a2,2 0 0 0 -1.46,0.64a2.3,2.3 0 0 0 -0.61,1.58a2.26,2.26 0 0 0 0.61,1.57a2,2 0 0 0 1.46,0.64a2,2 0 0 0 1.42,-0.64a2.3,2.3 0 0 0 0.61,-1.61l0,0.04zm2.52,-0.03a3.28,3.28 0 0 1 3.32,-3.25a3.35,3.35 0 0 1 2.06,0.7a0.52,0.52 0 1 1 -0.64,0.81a2.3,2.3 0 0 0 -1.42,-0.49a2.26,2.26 0 0 0 -1.62,0.66a2.15,2.15 0 0 0 0,3.12a2.25,2.25 0 0 0 1.62,0.65a2.48,2.48 0 0 0 1.24,-0.34l0,-1.23l-1.29,0a0.52,0.52 0 0 1 -0.51,-0.51a0.51,0.51 0 0 1 0.51,-0.51l1.79,0a0.51,0.51 0 0 1 0.52,0.51l0,2.16a0.44,0.44 0 0 1 -0.17,0.22a3.34,3.34 0 0 1 -2.05,0.7a3.27,3.27 0 0 1 -3.36,-3.2zm10.22,3.23a2.6,2.6 0 0 1 -2.61,-2.6l0,-3.21a0.49,0.49 0 0 1 0.5,-0.49a0.49,0.49 0 0 1 0.5,0.49l0,3.21a1.61,1.61 0 0 0 3.21,0l0,-3.21a0.5,0.5 0 0 1 1,0l0,3.21a2.6,2.6 0 0 1 -2.6,2.6zm4.26,-0.48l0,-5.33a0.49,0.49 0 0 1 0.5,-0.49l2.94,0a0.5,0.5 0 0 1 0.5,0.49a0.52,0.52 0 0 1 -0.5,0.51l-2.44,0l0,1.64l2.1,0a0.51,0.51 0 0 1 0.49,0.5a0.49,0.49 0 0 1 -0.49,0.5l-2.1,0l0,1.66l2.44,0a0.51,0.51 0 0 1 0.5,0.5a0.51,0.51 0 0 1 -0.5,0.5l-2.92,0a0.5,0.5 0 0 1 -0.52,-0.48zm-13.25,-31.15l-19.11,0a1.18,1.18 0 0 1 -1.18,-1.18a1.18,1.18 0 0 1 1.18,-1.18l19.11,0a1.18,1.18 0 0 1 1.18,1.18a1.18,1.18 0 0 1 -1.18,1.18z" fill="#fff"/>
  <path id="svg_13" d="m175.46,369.28l67.47,0l0,54.65l-67.47,0l0,-54.65z" fill="#dd65a3"/>
  <path id="svg_14" d="m257.07,369.28l67.47,0l0,54.65l-67.47,0l0,-54.65zm-81.61,-101.09l67.47,0l0,67.47l-67.47,0l0,-67.47z" fill="#ebebeb"/>
  <path id="svg_15" d="m257.07,268.19l67.47,0l0,67.47l-67.47,0l0,-67.47z" fill="#dd65a3"/>
  <path id="svg_16" d="m257.07,167.1l67.47,0l0,67.47l-67.47,0l0,-67.47z" fill="#ebebeb"/>
  <path id="svg_17" d="m175.46,167.1l67.47,0l0,67.47l-67.47,0l0,-67.47zm0.01,73.98l7.38,0l0,7.38l-7.38,0l0,-7.38z" fill="#dd65a3"/>
  <path id="svg_18" d="m185.77,241.08l7.38,0l0,7.38l-7.38,0l0,-7.38z" fill="#455a64"/>
  <path id="svg_19" d="m196.08,241.08l7.38,0l0,7.38l-7.38,0l0,-7.38z" fill="#dbdbdb"/>
  <path id="svg_20" d="m206.39,241.08l7.38,0l0,7.38l-7.38,0l0,-7.38z" fill="#263238"/>
  <path id="svg_21" d="m257.07,241.08l7.38,0l0,7.38l-7.38,0l0,-7.38z" fill="#dd65a3"/>
  <path id="svg_22" d="m267.38,241.08l7.38,0l0,7.38l-7.38,0l0,-7.38z" fill="#455a64"/>
  <path id="svg_23" d="m277.69,241.08l7.38,0l0,7.38l-7.38,0l0,-7.38z" fill="#dbdbdb"/>
  <path id="svg_24" d="m287.99,241.08l7.38,0l0,7.38l-7.38,0l0,-7.38zm-109.5,12.56a0.38,0.38 0 0 1 0.39,0.38l0,0.2a3.31,3.31 0 0 1 1.4,0.5a0.48,0.48 0 0 1 0.27,0.43a0.5,0.5 0 0 1 -0.51,0.49a0.47,0.47 0 0 1 -0.27,-0.08a3.08,3.08 0 0 0 -0.93,-0.39l0,1.72c1.37,0.35 2,0.9 2,1.86s-0.78,1.65 -1.92,1.75l0,0.5a0.38,0.38 0 0 1 -0.39,0.39a0.39,0.39 0 0 1 -0.39,-0.39l0,-0.55a4,4 0 0 1 -1.85,-0.7a0.51,0.51 0 0 1 -0.24,-0.44a0.48,0.48 0 0 1 0.49,-0.49a0.45,0.45 0 0 1 0.3,0.1a3.26,3.26 0 0 0 1.33,0.6l0,-1.77c-1.31,-0.35 -1.92,-0.84 -1.92,-1.86a1.81,1.81 0 0 1 1.89,-1.72l0,-0.17a0.39,0.39 0 0 1 0.35,-0.36zm-0.36,3.07l0,-1.6c-0.57,0.06 -0.86,0.36 -0.86,0.76s0.17,0.61 0.86,0.84zm0.71,1.25l0,1.64c0.58,-0.07 0.9,-0.36 0.9,-0.79s-0.2,-0.64 -0.9,-0.81l0,-0.04zm6.3,-1.28a2.16,2.16 0 0 1 0.66,1.57a2.21,2.21 0 0 1 -0.66,1.59a2.23,2.23 0 0 1 -1.58,0.66a2.27,2.27 0 0 1 -1.58,-0.66a0.53,0.53 0 0 1 0,-0.72a0.51,0.51 0 0 1 0.72,0a1.23,1.23 0 0 0 1.72,0a1.18,1.18 0 0 0 0.36,-0.87a1.14,1.14 0 0 0 -0.36,-0.85a1.21,1.21 0 0 0 -0.85,-0.36a0.46,0.46 0 0 1 -0.37,-0.16a0.51,0.51 0 0 1 0,-0.72l0.92,-0.94l-1.46,0a0.5,0.5 0 0 1 -0.5,-0.51a0.5,0.5 0 0 1 0.5,-0.51l2.66,0a0.51,0.51 0 0 1 0.51,0.51a0.61,0.61 0 0 1 -0.06,0.24l-0.09,0.13l-1.14,1.17a2,2 0 0 1 0.6,0.43zm2.05,-0.3a2.18,2.18 0 0 1 4.35,-0.22l0,0.52a5.35,5.35 0 0 1 -0.31,1.84a3.16,3.16 0 0 1 -1.17,1.54a2.49,2.49 0 0 1 -1.35,0.43a0.51,0.51 0 0 1 -0.52,-0.48a0.52,0.52 0 0 1 0.49,-0.52a1.58,1.58 0 0 0 0.84,-0.26a1.75,1.75 0 0 0 0.57,-0.63a1.67,1.67 0 0 0 0.12,-0.23a2.08,2.08 0 0 1 -0.87,0.18a2.18,2.18 0 0 1 -2.15,-2.17zm1,0a1.18,1.18 0 1 0 2.36,0a1.18,1.18 0 0 0 -2.36,0zm5.49,2.85a0.67,0.67 0 1 1 0,1.34a0.67,0.67 0 0 1 0,-1.34zm1.26,-2.85a2.19,2.19 0 0 1 4.36,-0.22l0,0.52a5.13,5.13 0 0 1 -0.32,1.84a3.08,3.08 0 0 1 -1.16,1.54a2.54,2.54 0 0 1 -1.35,0.43a0.51,0.51 0 0 1 -0.47,-0.49a0.52,0.52 0 0 1 0.49,-0.52a1.58,1.58 0 0 0 0.84,-0.26a1.75,1.75 0 0 0 0.57,-0.63l0.12,-0.23a2.12,2.12 0 0 1 -0.87,0.18a2.19,2.19 0 0 1 -2.21,-2.16zm1,0a1.19,1.19 0 1 0 2.37,0a1.19,1.19 0 0 0 -2.37,0zm4.78,0a2.19,2.19 0 0 1 4.36,-0.22l0,0.52a5.13,5.13 0 0 1 -0.32,1.84a3.08,3.08 0 0 1 -1.16,1.54a2.54,2.54 0 0 1 -1.35,0.43a0.5,0.5 0 0 1 -0.52,-0.48a0.51,0.51 0 0 1 0.48,-0.52a1.58,1.58 0 0 0 0.85,-0.26a1.94,1.94 0 0 0 0.57,-0.63a1.63,1.63 0 0 0 0.11,-0.23a2,2 0 0 1 -0.86,0.18a2.18,2.18 0 0 1 -2.16,-2.17zm1,0a1.19,1.19 0 1 0 2.37,0a1.19,1.19 0 0 0 -2.37,0zm58.38,-2.74a0.38,0.38 0 0 1 0.39,0.38l0,0.2a3.22,3.22 0 0 1 1.39,0.5a0.46,0.46 0 0 1 0.27,0.43a0.49,0.49 0 0 1 -0.5,0.49a0.47,0.47 0 0 1 -0.27,-0.08a3.08,3.08 0 0 0 -0.93,-0.39l0,1.72c1.37,0.35 2,0.9 2,1.86s-0.78,1.65 -1.92,1.75l0,0.5a0.38,0.38 0 0 1 -0.39,0.39a0.39,0.39 0 0 1 -0.39,-0.39l0,-0.55a4,4 0 0 1 -1.85,-0.7a0.51,0.51 0 0 1 -0.24,-0.44a0.48,0.48 0 0 1 0.49,-0.49a0.45,0.45 0 0 1 0.3,0.1a3.26,3.26 0 0 0 1.33,0.6l0,-1.77c-1.31,-0.35 -1.92,-0.84 -1.92,-1.86a1.81,1.81 0 0 1 1.89,-1.72l0,-0.17a0.39,0.39 0 0 1 0.35,-0.36zm-0.36,3.07l0,-1.6c-0.57,0.06 -0.86,0.36 -0.86,0.76s0.17,0.61 0.86,0.84zm0.71,1.25l0,1.64c0.58,-0.07 0.89,-0.36 0.89,-0.79s-0.19,-0.64 -0.89,-0.81l0,-0.04zm7.71,0.87a0.5,0.5 0 0 1 -0.51,0.5l-0.09,0l0,0.67a0.48,0.48 0 0 1 -0.49,0.49a0.49,0.49 0 0 1 -0.5,-0.49l0,-0.68l-2.83,0a0.45,0.45 0 0 1 -0.31,-0.11a0.49,0.49 0 0 1 -0.08,-0.7l3.33,-4.14l0.05,0c0.05,0 0,0 0,0l0.39,0l0,3.81l0.09,0a0.51,0.51 0 0 1 0.95,0.65zm-1.59,-2.72l-1.79,2.22l1.79,0l0,-2.22zm2.67,0.27a2.18,2.18 0 0 1 4.35,-0.22l0,0.52a5.35,5.35 0 0 1 -0.31,1.84a3.16,3.16 0 0 1 -1.17,1.54a2.49,2.49 0 0 1 -1.35,0.43a0.5,0.5 0 1 1 0,-1a1.58,1.58 0 0 0 0.84,-0.26a1.75,1.75 0 0 0 0.57,-0.63a1.67,1.67 0 0 0 0.12,-0.23a2.08,2.08 0 0 1 -0.87,0.18a2.18,2.18 0 0 1 -2.18,-2.17zm1,0a1.18,1.18 0 1 0 2.36,0a1.18,1.18 0 1 0 -2.36,0zm5.49,2.85a0.67,0.67 0 1 1 0,1.34a0.67,0.67 0 0 1 0,-1.34zm1.27,-2.85a2.19,2.19 0 0 1 4.36,-0.22l0,0.52a5.13,5.13 0 0 1 -0.32,1.84a3.08,3.08 0 0 1 -1.16,1.54a2.52,2.52 0 0 1 -1.35,0.43a0.51,0.51 0 0 1 -0.53,-0.49a0.52,0.52 0 0 1 0.49,-0.52a1.58,1.58 0 0 0 0.84,-0.26a1.75,1.75 0 0 0 0.57,-0.63l0.12,-0.23a2.08,2.08 0 0 1 -0.87,0.18a2.19,2.19 0 0 1 -2.15,-2.16zm1,0a1.2,1.2 0 0 0 1.19,1.19a1.18,1.18 0 0 0 1.18,-1.19a1.17,1.17 0 0 0 -1.18,-1.18a1.18,1.18 0 0 0 -1.19,1.18zm4.77,0a2.19,2.19 0 0 1 4.36,-0.22l0,0.52a5.13,5.13 0 0 1 -0.32,1.84a3.08,3.08 0 0 1 -1.16,1.54a2.54,2.54 0 0 1 -1.35,0.43a0.5,0.5 0 1 1 0,-1a1.58,1.58 0 0 0 0.85,-0.26a1.84,1.84 0 0 0 0.57,-0.63a1.63,1.63 0 0 0 0.11,-0.23a2,2 0 0 1 -0.86,0.18a2.18,2.18 0 0 1 -2.2,-2.17zm1,0a1.19,1.19 0 1 0 2.37,0a1.19,1.19 0 0 0 -2.37,0z" fill="#263238"/>
  <path id="svg_25" fill="#455a64" d="m314.61,313.42c-1,0.31 -46.59,-0.17 -47.23,-0.59s-0.93,-7.21 -1.06,-14.83l0,-0.32a2,2 0 0 0 0,-0.25l28.41,0.05l0,0.52s16.75,7.75 18.45,9.13s2.97,5.8 1.43,6.29z"/>
  <path id="svg_26" fill="#263238" d="m314.13,311.71c-7.42,-0.28 -37.37,-0.7 -44.72,-0.41c-0.06,0 -0.06,0 0,0c7.35,0.44 37.31,0.62 44.73,0.49c0.15,0.04 0.15,-0.07 -0.01,-0.08zm-16.25,-14.11c-2.91,-0.58 -6.49,-0.18 -8.75,1.87c-0.08,0.08 0,0.21 0.13,0.18a41.25,41.25 0 0 1 8.61,-1.68a0.19,0.19 0 0 0 0.01,-0.37zm2.12,1.3c-2.92,-0.58 -6.5,-0.18 -8.75,1.87c-0.09,0.08 0,0.2 0.12,0.17a41.23,41.23 0 0 1 8.61,-1.67a0.19,0.19 0 0 0 0.02,-0.37zm2.07,1.3c-2.92,-0.59 -6.49,-0.18 -8.75,1.87c-0.09,0.08 0,0.2 0.12,0.17a40.6,40.6 0 0 1 8.61,-1.67a0.19,0.19 0 0 0 0.02,-0.37z"/>
  <path id="svg_27" fill="#263238" d="m301.77,291.28c-1.13,-1.59 -3.28,-0.91 -4.51,0.1a15.66,15.66 0 0 0 -4.31,5.88l-0.09,0.22a0.5,0.5 0 0 1 -0.05,0.13l0,0.06c0,0.1 -0.07,0.2 -0.1,0.3a0.08,0.08 0 0 0 0.07,0.11a0.49,0.49 0 0 0 0.19,0.35a0.31,0.31 0 0 0 0.27,0c0.5,-0.18 1,-0.35 1.52,-0.51l1.69,-0.58a14,14 0 0 0 4,-2c1.17,-0.84 2.38,-2.55 1.32,-4.06zm-0.59,1.8c-0.31,1.77 -3.17,2.81 -4.58,3.35c-0.93,0.36 -1.88,0.67 -2.8,1l-0.52,0.21l-0.19,0.08l0.12,-0.18l0.06,-0.08a42.13,42.13 0 0 1 2.56,-3.52a16.46,16.46 0 0 1 1.57,-1.66c0.87,-0.76 4.33,-2.39 3.78,0.8z"/>
  <path id="svg_28" fill="#263238" d="m293.38,297.89l-0.13,-0.2a0.61,0.61 0 0 0 -0.07,-0.1l-0.06,-0.09c-0.05,-0.07 -0.1,-0.15 -0.16,-0.22a15.63,15.63 0 0 0 -5.56,-4.77c-1.43,-0.7 -3.68,-0.87 -4.41,0.94s0.88,3.1 2.28,3.72a8.11,8.11 0 0 0 0.82,0.31a19.78,19.78 0 0 0 4.86,0.82c0.67,0.06 1.34,0.11 2,0.19l0.05,0a0.36,0.36 0 0 0 0.36,-0.46a0.08,0.08 0 0 0 0.02,-0.14zm-0.61,-0.18l-0.15,0c-0.54,-0.09 -1.07,-0.15 -1.61,-0.22l-1.82,-0.22c-1.49,-0.2 -4.52,-0.55 -5.22,-2.2c-1.28,-3 2.47,-2.19 3.5,-1.63a16.08,16.08 0 0 1 1.91,1.25a39.84,39.84 0 0 1 3.28,2.81l0.15,0.13l0.11,0.1l-0.15,-0.02z"/>
  <path id="svg_29" d="m175.47,342.17l7.38,0l0,7.38l-7.38,0l0,-7.38z" fill="#dd65a3"/>
  <path id="svg_30" d="m185.77,342.17l7.38,0l0,7.38l-7.38,0l0,-7.38z" fill="#455a64"/>
  <path id="svg_31" d="m196.08,342.17l7.38,0l0,7.38l-7.38,0l0,-7.38z" fill="#dbdbdb"/>
  <path id="svg_32" d="m206.39,342.17l7.38,0l0,7.38l-7.38,0l0,-7.38z" fill="#263238"/>
  <path id="svg_33" d="m257.07,342.17l7.38,0l0,7.38l-7.38,0l0,-7.38z" fill="#a6a6a6"/>
  <path id="svg_34" d="m267.38,342.17l7.38,0l0,7.38l-7.38,0l0,-7.38z" fill="#455a64"/>
  <path id="svg_35" d="m277.69,342.17l7.38,0l0,7.38l-7.38,0l0,-7.38z" fill="#dbdbdb"/>
  <path id="svg_36" d="m287.99,342.17l7.38,0l0,7.38l-7.38,0l0,-7.38zm-109.5,12.56a0.38,0.38 0 0 1 0.39,0.39l0,0.19a3.45,3.45 0 0 1 1.4,0.5a0.48,0.48 0 0 1 0.27,0.43a0.5,0.5 0 0 1 -0.51,0.5a0.48,0.48 0 0 1 -0.27,-0.09a3.08,3.08 0 0 0 -0.93,-0.39l0,1.74c1.37,0.34 2,0.89 2,1.85s-0.78,1.65 -1.92,1.76l0,0.54a0.38,0.38 0 0 1 -0.39,0.38a0.39,0.39 0 0 1 -0.39,-0.38l0,-0.56a4,4 0 0 1 -1.85,-0.7a0.51,0.51 0 0 1 -0.24,-0.44a0.48,0.48 0 0 1 0.49,-0.49a0.51,0.51 0 0 1 0.3,0.1a3.26,3.26 0 0 0 1.33,0.6l0,-1.77c-1.31,-0.34 -1.92,-0.84 -1.92,-1.86a1.81,1.81 0 0 1 1.89,-1.72l0,-0.18a0.39,0.39 0 0 1 0.35,-0.4zm-0.36,3.07l0,-1.6c-0.57,0.06 -0.86,0.36 -0.86,0.76s0.17,0.61 0.86,0.84zm0.71,1.25l0,1.64c0.58,-0.07 0.9,-0.35 0.9,-0.79s-0.2,-0.64 -0.9,-0.85zm6.3,-1.28a2.17,2.17 0 0 1 0.66,1.58a2.2,2.2 0 0 1 -0.66,1.58a2.23,2.23 0 0 1 -1.58,0.66a2.27,2.27 0 0 1 -1.58,-0.66a0.53,0.53 0 0 1 0,-0.72a0.51,0.51 0 0 1 0.72,0a1.23,1.23 0 0 0 1.72,0a1.17,1.17 0 0 0 0.36,-0.86a1.14,1.14 0 0 0 -0.36,-0.86a1.21,1.21 0 0 0 -0.85,-0.36a0.43,0.43 0 0 1 -0.37,-0.16a0.51,0.51 0 0 1 0,-0.72l0.92,-0.94l-1.46,0a0.51,0.51 0 0 1 0,-1l2.66,0a0.5,0.5 0 0 1 0.51,0.5a0.61,0.61 0 0 1 -0.06,0.24l-0.09,0.13l-1.14,1.17a2,2 0 0 1 0.6,0.42zm2.05,-0.3a2.18,2.18 0 0 1 4.35,-0.22l0,0.51a5.45,5.45 0 0 1 -0.31,1.85a3.14,3.14 0 0 1 -1.17,1.53a2.49,2.49 0 0 1 -1.35,0.43a0.5,0.5 0 0 1 -0.52,-0.48a0.52,0.52 0 0 1 0.49,-0.52a1.67,1.67 0 0 0 0.84,-0.25a1.83,1.83 0 0 0 0.57,-0.63c0,-0.08 0.08,-0.16 0.12,-0.24a2.08,2.08 0 0 1 -0.87,0.18a2.18,2.18 0 0 1 -2.15,-2.16zm1,0a1.18,1.18 0 1 0 2.36,0a1.18,1.18 0 0 0 -2.36,0zm5.49,2.85a0.67,0.67 0 1 1 0,1.34a0.67,0.67 0 0 1 0,-1.34zm1.26,-2.85a2.19,2.19 0 0 1 4.36,-0.22l0,0.51a5.23,5.23 0 0 1 -0.32,1.85a3.06,3.06 0 0 1 -1.16,1.53a2.54,2.54 0 0 1 -1.35,0.43a0.5,0.5 0 0 1 -0.52,-0.48a0.52,0.52 0 0 1 0.49,-0.52a1.67,1.67 0 0 0 0.84,-0.25a1.83,1.83 0 0 0 0.57,-0.63l0.12,-0.24a2.12,2.12 0 0 1 -0.87,0.18a2.19,2.19 0 0 1 -2.16,-2.16zm1,0a1.19,1.19 0 1 0 2.37,0a1.19,1.19 0 0 0 -2.37,0zm4.78,0a2.19,2.19 0 0 1 4.36,-0.22l0,0.51a5.23,5.23 0 0 1 -0.32,1.85a3.06,3.06 0 0 1 -1.16,1.53a2.54,2.54 0 0 1 -1.35,0.43a0.5,0.5 0 0 1 -0.52,-0.48a0.51,0.51 0 0 1 0.48,-0.52a1.67,1.67 0 0 0 0.85,-0.25a2.05,2.05 0 0 0 0.57,-0.63a2.56,2.56 0 0 0 0.11,-0.24a2,2 0 0 1 -0.86,0.18a2.18,2.18 0 0 1 -2.16,-2.16zm1,0a1.19,1.19 0 1 0 2.37,0a1.19,1.19 0 0 0 -2.37,0zm58.38,-2.74a0.38,0.38 0 0 1 0.39,0.39l0,0.19a3.35,3.35 0 0 1 1.39,0.5a0.46,0.46 0 0 1 0.27,0.43a0.5,0.5 0 0 1 -0.5,0.5a0.48,0.48 0 0 1 -0.27,-0.09a3.08,3.08 0 0 0 -0.93,-0.39l0,1.74c1.37,0.34 2,0.89 2,1.85s-0.78,1.65 -1.92,1.76l0,0.54a0.38,0.38 0 0 1 -0.39,0.38a0.39,0.39 0 0 1 -0.39,-0.38l0,-0.56a4,4 0 0 1 -1.85,-0.7a0.51,0.51 0 0 1 -0.24,-0.44a0.48,0.48 0 0 1 0.49,-0.49a0.51,0.51 0 0 1 0.3,0.1a3.26,3.26 0 0 0 1.33,0.6l0,-1.77c-1.31,-0.34 -1.92,-0.84 -1.92,-1.86a1.81,1.81 0 0 1 1.89,-1.72l0,-0.18a0.39,0.39 0 0 1 0.35,-0.4zm-0.36,3.07l0,-1.6c-0.57,0.06 -0.86,0.36 -0.86,0.76s0.17,0.61 0.86,0.84zm0.71,1.25l0,1.64c0.58,-0.07 0.89,-0.35 0.89,-0.79s-0.19,-0.64 -0.89,-0.85zm6.3,-1.28a2.17,2.17 0 0 1 0.66,1.58a2.2,2.2 0 0 1 -0.66,1.58a2.23,2.23 0 0 1 -1.58,0.66a2.27,2.27 0 0 1 -1.58,-0.66a0.53,0.53 0 0 1 0,-0.72a0.51,0.51 0 0 1 0.72,0a1.23,1.23 0 0 0 0.86,0.35a1.24,1.24 0 0 0 0.86,-0.35a1.17,1.17 0 0 0 0.36,-0.86a1.14,1.14 0 0 0 -0.36,-0.86a1.21,1.21 0 0 0 -0.85,-0.36a0.43,0.43 0 0 1 -0.37,-0.16a0.51,0.51 0 0 1 0,-0.72l0.92,-0.94l-1.46,0a0.51,0.51 0 0 1 0,-1l2.66,0a0.5,0.5 0 0 1 0.51,0.5a0.61,0.61 0 0 1 -0.06,0.24l-0.09,0.13l-1.14,1.17a2,2 0 0 1 0.6,0.42zm2.04,-0.3a2.19,2.19 0 0 1 4.36,-0.22l0,0.51a5.45,5.45 0 0 1 -0.31,1.85a3.14,3.14 0 0 1 -1.17,1.53a2.49,2.49 0 0 1 -1.35,0.43a0.5,0.5 0 0 1 -0.52,-0.48a0.52,0.52 0 0 1 0.49,-0.52a1.67,1.67 0 0 0 0.84,-0.25a1.83,1.83 0 0 0 0.57,-0.63c0,-0.08 0.08,-0.16 0.12,-0.24a2.08,2.08 0 0 1 -0.87,0.18a2.19,2.19 0 0 1 -2.16,-2.16zm1,0a1.2,1.2 0 0 0 1.19,1.19a1.19,1.19 0 1 0 -1.19,-1.19zm5.5,2.85a0.67,0.67 0 1 1 0,1.34a0.67,0.67 0 0 1 0,-1.34zm1.26,-2.85a2.19,2.19 0 0 1 4.36,-0.22l0,0.51a5.23,5.23 0 0 1 -0.32,1.85a3.06,3.06 0 0 1 -1.16,1.53a2.54,2.54 0 0 1 -1.35,0.43a0.5,0.5 0 0 1 -0.52,-0.48a0.51,0.51 0 0 1 0.48,-0.52a1.67,1.67 0 0 0 0.85,-0.25a1.94,1.94 0 0 0 0.57,-0.63l0.12,-0.24a2.12,2.12 0 0 1 -0.87,0.18a2.19,2.19 0 0 1 -2.16,-2.16zm1,0a1.19,1.19 0 1 0 2.37,0a1.19,1.19 0 0 0 -2.37,0zm4.78,0a2.19,2.19 0 0 1 4.36,-0.22l0,0.51a5.21,5.21 0 0 1 -0.31,1.85a3.06,3.06 0 0 1 -1.16,1.53a2.54,2.54 0 0 1 -1.35,0.43a0.5,0.5 0 0 1 -0.52,-0.48a0.51,0.51 0 0 1 0.48,-0.52a1.74,1.74 0 0 0 0.85,-0.25a2.05,2.05 0 0 0 0.57,-0.63a2.56,2.56 0 0 0 0.11,-0.24a2.07,2.07 0 0 1 -0.86,0.18a2.18,2.18 0 0 1 -2.17,-2.16zm1,0a1.19,1.19 0 1 0 2.37,0a1.19,1.19 0 0 0 -2.37,0z" fill="#263238"/>
  <path id="svg_37" d="m159.04,112.15l181.9,0l0,37.25l-181.9,0l0,-37.25z" fill="#dd65a3"/>
  <path id="svg_38" fill="#fff" d="m225.31,133.13a0.79,0.79 0 0 1 1.1,-0.11a4.93,4.93 0 0 0 2.86,1.16a3.32,3.32 0 0 0 1.88,-0.55a1.37,1.37 0 0 0 0.64,-1.09a0.86,0.86 0 0 0 -0.13,-0.48a1.59,1.59 0 0 0 -0.45,-0.45a6,6 0 0 0 -2.06,-0.7a8.91,8.91 0 0 1 -1.93,-0.58a3.23,3.23 0 0 1 -1.4,-1.18a2.31,2.31 0 0 1 -0.34,-1.22a2.76,2.76 0 0 1 1.2,-2.19a4.42,4.42 0 0 1 2.59,-0.8a5.9,5.9 0 0 1 3.27,1.2a0.78,0.78 0 0 1 0.21,1.07a0.76,0.76 0 0 1 -1.06,0.22a4.37,4.37 0 0 0 -2.42,-1a2.89,2.89 0 0 0 -1.68,0.51a1.21,1.21 0 0 0 -0.57,1a0.71,0.71 0 0 0 0.11,0.42a1.47,1.47 0 0 0 0.4,0.38a5.18,5.18 0 0 0 1.88,0.67a8.67,8.67 0 0 1 2.07,0.62a3.61,3.61 0 0 1 1.5,1.25a2.47,2.47 0 0 1 0.36,1.27a2.91,2.91 0 0 1 -1.29,2.33a4.7,4.7 0 0 1 -2.78,0.85a6.42,6.42 0 0 1 -3.84,-1.5a0.8,0.8 0 0 1 -0.12,-1.1zm10.34,1.78l0,-8.85a0.81,0.81 0 0 1 0.82,-0.82a0.82,0.82 0 0 1 0.84,0.82l0,3.6l3.89,0l0,-3.6a0.81,0.81 0 0 1 0.82,-0.82a0.82,0.82 0 0 1 0.84,0.82l0,8.85a0.82,0.82 0 0 1 -0.84,0.83a0.81,0.81 0 0 1 -0.82,-0.83l0,-3.6l-3.89,0l0,3.6a0.82,0.82 0 0 1 -0.84,0.83a0.81,0.81 0 0 1 -0.82,-0.83zm18.46,-8.37a5.53,5.53 0 0 1 1.52,3.8a5.47,5.47 0 0 1 -1.52,3.79a4.92,4.92 0 0 1 -3.59,1.61a5,5 0 0 1 -3.67,-1.61a5.45,5.45 0 0 1 -1.49,-3.79a5.51,5.51 0 0 1 1.49,-3.8a5,5 0 0 1 3.67,-1.6a4.91,4.91 0 0 1 3.59,1.6zm-0.19,3.8a3.9,3.9 0 0 0 -1,-2.63a3.25,3.25 0 0 0 -4.8,0a3.85,3.85 0 0 0 -1,2.63a3.76,3.76 0 0 0 1,2.61a3.21,3.21 0 0 0 4.8,0a3.81,3.81 0 0 0 1,-2.61zm4.66,4.57l0,-8.85a0.81,0.81 0 0 1 0.82,-0.82l4.91,0a0.83,0.83 0 0 1 0.82,0.82a0.85,0.85 0 0 1 -0.82,0.85l-4.07,0l0,2.74l3.5,0a0.84,0.84 0 0 1 0.82,0.83a0.83,0.83 0 0 1 -0.82,0.83l-3.5,0l0,2.76l4.07,0a0.84,0.84 0 0 1 0,1.67l-4.86,0a0.83,0.83 0 0 1 -0.87,-0.83zm8.56,-1.78a0.79,0.79 0 0 1 1.1,-0.11a4.93,4.93 0 0 0 2.86,1.16a3.32,3.32 0 0 0 1.88,-0.55a1.37,1.37 0 0 0 0.64,-1.09a0.86,0.86 0 0 0 -0.13,-0.48a1.59,1.59 0 0 0 -0.45,-0.45a6,6 0 0 0 -2.06,-0.7a8.91,8.91 0 0 1 -1.93,-0.58a3.23,3.23 0 0 1 -1.4,-1.18a2.31,2.31 0 0 1 -0.34,-1.22a2.76,2.76 0 0 1 1.2,-2.19a4.42,4.42 0 0 1 2.59,-0.8a5.9,5.9 0 0 1 3.27,1.2a0.77,0.77 0 0 1 0.21,1.07a0.76,0.76 0 0 1 -1.06,0.22a4.37,4.37 0 0 0 -2.42,-1a2.89,2.89 0 0 0 -1.68,0.51a1.21,1.21 0 0 0 -0.57,1a0.71,0.71 0 0 0 0.11,0.42a1.47,1.47 0 0 0 0.4,0.38a5.18,5.18 0 0 0 1.88,0.67a8.67,8.67 0 0 1 2.07,0.62a3.61,3.61 0 0 1 1.5,1.25a2.47,2.47 0 0 1 0.36,1.27a2.91,2.91 0 0 1 -1.29,2.33a4.7,4.7 0 0 1 -2.78,0.85a6.42,6.42 0 0 1 -3.84,-1.5a0.8,0.8 0 0 1 -0.12,-1.1z"/>
  <path id="svg_39" fill="#455a64" d="m233.23,212.28c-1.56,0.51 -46.19,0.65 -47.89,-0.44c-0.64,-0.41 -1.24,-7.74 -0.58,-15.35l28.76,0.24s16.47,7.77 18.2,9.16s3.07,5.88 1.51,6.39z"/>
  <path id="svg_40" fill="#fff" d="m233.89,211.3a1.1,1.1 0 0 1 -0.66,1c-1.56,0.51 -46.19,0.64 -47.89,-0.45a2.8,2.8 0 0 1 -0.43,-1.38l37.73,0a7.77,7.77 0 0 1 2.1,-4.4a6.71,6.71 0 0 1 4.18,-1.78a24.62,24.62 0 0 1 2.8,1.61a7.67,7.67 0 0 1 2.18,4.57a3.34,3.34 0 0 1 -0.01,0.83z"/>
  <path id="svg_41" fill="#263238" d="m232.6,210.49c-7.47,-0.23 -37.66,-0.48 -45.06,-0.15c-0.06,0 -0.06,0 0,0c7.4,0.39 37.58,0.4 45.06,0.23c0.16,0.04 0.16,-0.07 0,-0.08zm-3.73,-6.23a6,6 0 0 0 -4.49,1.8a5.81,5.81 0 0 0 -1.7,4l0.09,0a6.94,6.94 0 0 1 6.1,-5.68a0.05,0.05 0 0 0 0,-0.12zm-13.01,-6.76c-3,-0.06 -6.47,1 -8.34,3.4c-0.08,0.1 0.06,0.2 0.15,0.15a41.56,41.56 0 0 1 8.24,-3.18a0.19,0.19 0 0 0 -0.05,-0.37zm2.31,0.92c-3,-0.07 -6.47,1 -8.35,3.4c-0.07,0.09 0.06,0.2 0.15,0.15a41.27,41.27 0 0 1 8.25,-3.18a0.19,0.19 0 0 0 -0.05,-0.37zm2.3,0.91c-3,-0.06 -6.47,1 -8.35,3.41c-0.07,0.09 0.07,0.19 0.16,0.15a41,41 0 0 1 8.24,-3.19a0.19,0.19 0 0 0 -0.05,-0.37zm2.31,0.92c-3,-0.06 -6.47,1 -8.35,3.41c-0.07,0.09 0.06,0.19 0.15,0.15a41.3,41.3 0 0 1 8.25,-3.19a0.19,0.19 0 0 0 -0.05,-0.37z"/>
  <path id="svg_42" fill="#fff" d="m189.49,202c-3.36,0 -3.39,5.2 0,5.22s3.37,-5.22 0,-5.22z"/>
  <path id="svg_43" fill="#263238" d="m219.16,189.54c-1.51,-1.27 -3.43,-0.06 -4.37,1.24a15.66,15.66 0 0 0 -2.54,5.94c-0.07,0.3 -0.12,0.6 -0.16,0.9c0,0.13 0,0.26 -0.05,0.38a0.31,0.31 0 0 1 0,0.1l0,0.3c0,0.1 0.05,0.09 0.1,0.09a0.37,0.37 0 0 0 0.3,0.29a0.28,0.28 0 0 0 0.23,0c0.59,-0.4 1.21,-0.8 1.83,-1.2l0.33,-0.21a16.3,16.3 0 0 0 4.09,-3.42c0.92,-1.24 1.66,-3.22 0.24,-4.41zm-3.72,6.33c-0.5,0.36 -1,0.7 -1.51,1s-0.87,0.61 -1.29,0.93l-0.15,0.11l-0.16,0.12l0.06,-0.17l0.42,-1.17a26.06,26.06 0 0 1 1.23,-3.06a17,17 0 0 1 1.1,-2c0.66,-1 3.62,-3.47 3.89,-0.21c0.16,1.82 -2.36,3.58 -3.59,4.45z"/>
  <path id="svg_44" fill="#263238" d="m212.66,198.24a0.08,0.08 0 0 0 0,-0.12l-0.18,-0.16l-0.07,-0.06a2.61,2.61 0 0 0 -0.31,-0.27a12.21,12.21 0 0 0 -1.23,-0.91a15.23,15.23 0 0 0 -5.41,-2.32c-1.57,-0.32 -3.8,0.09 -4,2a1.41,1.41 0 0 0 0,0.2c-0.09,1.72 1.72,2.61 3.18,2.84a14.71,14.71 0 0 0 4.63,-0.14c1.08,-0.17 2.16,-0.38 3.21,-0.54a0.37,0.37 0 0 0 0.18,-0.52zm-4.23,0.33c-1.51,0.18 -4.55,0.61 -5.66,-0.82a2.41,2.41 0 0 1 -0.55,-1.11c-0.23,-1.52 2.59,-1.6 3.55,-1.37a16.9,16.9 0 0 1 2.23,0.73c0.53,0.21 1.05,0.44 1.56,0.7c0.85,0.41 1.69,0.86 2.53,1.3l0.16,0.08l-0.61,0c-1.1,0.19 -2.15,0.36 -3.21,0.49z"/>
  <path id="svg_45" fill="#dd65a3" d="m233.23,313.38c-1.56,0.51 -46.19,0.64 -47.89,-0.45c-0.64,-0.41 -1.24,-7.74 -0.58,-15.34l28.76,0.24s16.47,7.76 18.2,9.15s3.07,5.89 1.51,6.4z"/>
  <path id="svg_46" fill="#263238" d="m232.6,311.59c-7.47,-0.24 -37.66,-0.49 -45.06,-0.16c-0.06,0 -0.06,0.05 0,0.05c7.4,0.4 37.58,0.4 45.06,0.23c0.16,0 0.16,-0.12 0,-0.12zm-3.73,-6.23a6,6 0 0 0 -4.49,1.79a5.81,5.81 0 0 0 -1.7,4c0,0.05 0.08,0.05 0.09,0a7,7 0 0 1 6.1,-5.68l0,-0.11zm-13.01,-6.77c-3,-0.06 -6.47,1 -8.34,3.41c-0.08,0.09 0.06,0.19 0.15,0.15a41,41 0 0 1 8.24,-3.19a0.19,0.19 0 0 0 -0.05,-0.37zm2.31,0.92c-3,-0.06 -6.47,1 -8.35,3.4c-0.07,0.1 0.06,0.2 0.15,0.16a41.3,41.3 0 0 1 8.25,-3.19a0.19,0.19 0 0 0 -0.05,-0.37zm2.3,0.92c-3,-0.07 -6.47,1 -8.35,3.4c-0.07,0.1 0.07,0.2 0.16,0.15a41.56,41.56 0 0 1 8.24,-3.18a0.19,0.19 0 0 0 -0.05,-0.37zm2.31,0.91c-3,-0.06 -6.47,1 -8.35,3.41c-0.07,0.09 0.06,0.19 0.15,0.15a41.3,41.3 0 0 1 8.25,-3.19a0.19,0.19 0 0 0 -0.05,-0.37zm-33.29,3c-3.36,0 -3.39,5.21 0,5.22s3.37,-5.2 0,-5.22z"/>
  <path id="svg_47" fill="#263238" d="m219.16,290.63c-1.51,-1.27 -3.43,-0.05 -4.37,1.24a15.77,15.77 0 0 0 -2.54,5.95c-0.07,0.3 -0.12,0.6 -0.16,0.89c0,0.13 0,0.26 -0.05,0.38l0,0.41a0.08,0.08 0 0 0 0.1,0.08a0.37,0.37 0 0 0 0.3,0.29a0.28,0.28 0 0 0 0.23,0c0.59,-0.4 1.21,-0.8 1.83,-1.2l0.32,-0.2a16.18,16.18 0 0 0 4.1,-3.43c0.92,-1.24 1.66,-3.21 0.24,-4.41zm-3.72,6.37l-1.51,1l-1.27,0.91l-0.17,0.13l-0.16,0.12l0.06,-0.18c0.14,-0.39 0.28,-0.77 0.41,-1.16a29,29 0 0 1 1.24,-3.07a17,17 0 0 1 1.1,-2c0.66,-1 3.62,-3.46 3.89,-0.2c0.16,1.78 -2.36,3.53 -3.59,4.45z"/>
  <path id="svg_48" fill="#263238" d="m212.66,299.34a0.08,0.08 0 0 0 0,-0.13a1.19,1.19 0 0 0 -0.18,-0.15a0.15,0.15 0 0 0 -0.07,-0.07a1.93,1.93 0 0 0 -0.31,-0.27a10.54,10.54 0 0 0 -1.21,-0.9a15.63,15.63 0 0 0 -5.43,-2.33c-1.57,-0.32 -3.8,0.09 -4,2a1.48,1.48 0 0 0 0,0.21c-0.08,1.71 1.72,2.6 3.18,2.84a15.15,15.15 0 0 0 4.65,-0.15c1.07,-0.17 2.14,-0.38 3.19,-0.54a0.36,0.36 0 0 0 0.18,-0.51zm-4.23,0.32c-1.51,0.19 -4.55,0.61 -5.66,-0.81a2.41,2.41 0 0 1 -0.55,-1.11c-0.23,-1.52 2.59,-1.6 3.55,-1.37a16.85,16.85 0 0 1 2.18,0.72c0.54,0.21 1.06,0.45 1.58,0.71c0.85,0.41 1.67,0.86 2.51,1.29l0.16,0.08l-0.61,0c-1.05,0.19 -2.1,0.36 -3.16,0.49z"/>
  <path id="svg_49" fill="#dd65a3" d="m314.84,212.28c-1.56,0.51 -46.19,0.65 -47.89,-0.44c-0.64,-0.41 -1.25,-15.36 -0.58,-23l28.76,0.24s0.2,7.71 0.55,7.87c2.86,1.36 16.11,7.66 17.65,8.9c1.72,1.43 3.07,5.92 1.51,6.43z"/>
  <path id="svg_50" fill="#263238" d="m314.21,210.49c-7.48,-0.23 -37.66,-0.48 -45.07,-0.15c-0.06,0 -0.06,0 0,0c7.41,0.4 37.59,0.4 45.07,0.23c0.16,0.04 0.16,-0.07 0,-0.08zm-3.73,-6.23a6,6 0 0 0 -4.49,1.8a5.81,5.81 0 0 0 -1.7,4s0.08,0.05 0.09,0a6.94,6.94 0 0 1 6.1,-5.68a0.05,0.05 0 0 0 0,-0.12zm-13.01,-6.76c-3,-0.06 -6.47,1 -8.35,3.4c-0.07,0.1 0.07,0.2 0.16,0.16a41,41 0 0 1 8.24,-3.19a0.19,0.19 0 0 0 -0.05,-0.37zm2.31,0.92c-3,-0.07 -6.47,1 -8.35,3.4c-0.07,0.1 0.06,0.2 0.15,0.15a41.88,41.88 0 0 1 8.25,-3.18a0.19,0.19 0 0 0 -0.05,-0.37zm2.3,0.92c-3,-0.07 -6.47,1 -8.35,3.4c-0.07,0.09 0.07,0.2 0.15,0.15a41.3,41.3 0 0 1 8.25,-3.19a0.18,0.18 0 0 0 -0.05,-0.36zm2.31,0.91c-3,-0.06 -6.47,1 -8.35,3.41c-0.08,0.09 0.06,0.19 0.15,0.15a41,41 0 0 1 8.24,-3.19a0.19,0.19 0 0 0 -0.04,-0.37zm-33.29,-8.57c-3.36,0 -3.39,5.21 0,5.22s3.36,-5.2 0,-5.22z"/>
  <path id="svg_51" fill="#263238" d="m300.76,189.54c-1.5,-1.27 -3.42,-0.06 -4.36,1.24a13.36,13.36 0 0 0 -1.15,1.92a16.07,16.07 0 0 0 -1.54,4.92a2.58,2.58 0 0 0 0,0.39a0.12,0.12 0 0 0 0,0.1l0,0.31a0.08,0.08 0 0 0 0.1,0.08a0.39,0.39 0 0 0 0.3,0.29a0.28,0.28 0 0 0 0.23,0c0.59,-0.4 1.21,-0.8 1.83,-1.2l0.33,-0.21a16.43,16.43 0 0 0 4.08,-3.42c0.87,-1.25 1.61,-3.23 0.18,-4.42zm-3.71,6.33l-1.44,1c-0.46,0.32 -0.92,0.64 -1.36,1l-0.15,0.11l-0.16,0.12l0.06,-0.17c0.43,-1.18 0.82,-2.38 1.34,-3.53c0.09,-0.23 0.2,-0.46 0.31,-0.69a17,17 0 0 1 1.1,-2c0.66,-1 3.62,-3.47 3.89,-0.21c0.16,1.74 -2.36,3.5 -3.59,4.37z"/>
  <path id="svg_52" fill="#263238" d="m294.27,198.25a0.09,0.09 0 0 0 0,-0.13l-0.18,-0.16l-0.06,-0.06l-0.3,-0.26a15.82,15.82 0 0 0 -6.65,-3.23c-1.57,-0.32 -3.8,0.09 -4.05,2s1.65,2.8 3.17,3a14.71,14.71 0 0 0 4.63,-0.14c1.08,-0.17 2.16,-0.38 3.21,-0.54a0.37,0.37 0 0 0 0.23,-0.48zm-4.24,0.32c-1.5,0.19 -4.54,0.61 -5.65,-0.81c-2,-2.59 1.85,-2.77 3,-2.49a16.9,16.9 0 0 1 2.18,0.73a42,42 0 0 1 4.1,2l0.15,0.08l-0.61,0c-1.05,0.19 -2.1,0.36 -3.2,0.49l0.03,0z"/>
  <path id="svg_53" fill="#455a64" d="m233.23,414.53c-1.56,0.51 -46.19,0.64 -47.89,-0.45c-0.64,-0.41 -1.24,-15.35 -0.58,-22.95l28.76,0.24s0.2,7.7 0.55,7.87c2.86,1.35 16.11,7.65 17.65,8.89c1.72,1.4 3.07,5.87 1.51,6.4z"/>
  <path id="svg_54" fill="#263238" d="m232.6,412.74c-7.47,-0.24 -37.66,-0.49 -45.06,-0.15c-0.06,0 -0.06,0 0,0c7.4,0.4 37.58,0.41 45.06,0.23c0.16,0.04 0.16,-0.08 0,-0.08zm-3.73,-6.23a6,6 0 0 0 -4.49,1.79a5.81,5.81 0 0 0 -1.7,4c0,0.05 0.08,0.05 0.09,0a7,7 0 0 1 6.1,-5.68l0,-0.11zm-14.3,-12.34c-2.75,-1.18 -6.37,-1.52 -9,0c-0.1,0.07 0,0.21 0.09,0.2a41.48,41.48 0 0 1 8.84,0.12a0.19,0.19 0 0 0 0.07,-0.32zm0.29,2.38c-2.75,-1.18 -6.36,-1.51 -9,0.05c-0.11,0.06 0,0.2 0.08,0.19a41.48,41.48 0 0 1 8.84,0.12a0.19,0.19 0 0 0 0.08,-0.36zm0.29,2.38c-2.75,-1.18 -6.36,-1.51 -9,0.05c-0.11,0.06 0,0.2 0.08,0.19a41.48,41.48 0 0 1 8.84,0.12a0.19,0.19 0 0 0 0.08,-0.36zm-24.44,-7.44c0.15,1.58 0.23,3.17 0.29,4.75s0.07,3.18 0.08,4.76s0,3.17 -0.08,4.76s-0.14,3.17 -0.29,4.76c-0.16,-1.59 -0.23,-3.17 -0.29,-4.76s-0.08,-3.17 -0.09,-4.76s0,-3.17 0.09,-4.76s0.13,-3.17 0.29,-4.75z"/>
  <path id="svg_55" fill="#dd65a3" d="m314.84,414.53c-1.56,0.51 -46.19,0.64 -47.89,-0.45c-0.64,-0.41 -1.25,-26 -0.58,-33.65l28.76,0.24s0.2,18.4 0.55,18.57c2.86,1.35 16.11,7.65 17.65,8.89c1.72,1.4 3.07,5.87 1.51,6.4z"/>
  <path id="svg_56" fill="#263238" d="m314.21,412.74c-7.48,-0.24 -37.66,-0.49 -45.07,-0.15c-0.06,0 -0.06,0 0,0c7.41,0.4 37.59,0.41 45.07,0.23c0.16,0.04 0.16,-0.08 0,-0.08zm-3.73,-6.23a6,6 0 0 0 -4.48,1.79a5.81,5.81 0 0 0 -1.7,4c0,0.05 0.08,0.05 0.09,0a7,7 0 0 1 6.1,-5.68s0.05,-0.11 -0.01,-0.11zm-14.37,-12.21c-2.72,-1.25 -6.32,-1.69 -9,-0.21c-0.11,0.06 0,0.2 0.08,0.2a41.43,41.43 0 0 1 8.83,0.37a0.19,0.19 0 0 0 0.09,-0.36zm0.22,2.39c-2.71,-1.25 -6.32,-1.69 -9,-0.21c-0.1,0.06 0,0.2 0.08,0.2a40.78,40.78 0 0 1 8.83,0.37a0.19,0.19 0 0 0 0.09,-0.36zm-0.42,-4.78c-2.72,-1.25 -6.32,-1.69 -9,-0.21c-0.1,0.06 0,0.21 0.08,0.2a41.52,41.52 0 0 1 8.84,0.37a0.19,0.19 0 0 0 0.08,-0.36zm-0.22,-2.39c-2.71,-1.25 -6.32,-1.69 -9,-0.21c-0.1,0.06 0,0.21 0.08,0.2a42.09,42.09 0 0 1 8.83,0.37a0.19,0.19 0 0 0 0.09,-0.36zm-0.21,-2.38c-2.72,-1.26 -6.32,-1.7 -9,-0.22c-0.11,0.06 0,0.21 0.08,0.2a42.09,42.09 0 0 1 8.83,0.37a0.18,0.18 0 0 0 0.09,-0.35zm-0.21,-2.39c-2.72,-1.25 -6.32,-1.7 -9,-0.21c-0.1,0 0,0.2 0.08,0.2a40.87,40.87 0 0 1 8.84,0.37a0.19,0.19 0 0 0 0.08,-0.36zm1.29,14.33c-2.72,-1.25 -6.32,-1.7 -9,-0.21c-0.1,0.05 0,0.2 0.08,0.2a40.78,40.78 0 0 1 8.83,0.37a0.19,0.19 0 0 0 0.09,-0.36zm-24.24,-18.6c0.15,2.51 0.23,5 0.29,7.51s0.05,5 0.08,7.51s0,5 -0.08,7.51s-0.14,5 -0.29,7.51c-0.16,-2.51 -0.23,-5 -0.29,-7.51s-0.06,-5 -0.09,-7.51s0,-5 0.09,-7.51s0.13,-4.99 0.29,-7.51zm67.99,-251.05l-0.4,0.1a0.24,0.24 0 0 1 0.07,-0.12l0.33,0.02z"/>
  <path id="svg_57" fill="#f7a9a0" d="m351.82,418.33l-0.18,0l0,-0.13l0.18,0.13z"/>
  <path id="svg_58" d="m348,349.74l-2.37,14.23l-16.07,86.81l-2.6,0l11.69,-86.81l1.73,-14.23l7.62,0z" fill="#dbdbdb"/>
  <path id="svg_59" d="m340.38,349.74l7.62,0l-2.37,14.23l-6.98,0l1.73,-14.23z" fill="#a6a6a6"/>
  <path id="svg_60" d="m398.49,450.78l-2.59,0l-16.08,-86.81l-2.37,-14.23l7.62,0l1.73,14.23l11.69,86.81z" fill="#dbdbdb"/>
  <path id="svg_61" d="m385.07,349.74l1.73,14.23l-6.98,0l-2.37,-14.23l7.62,0z" fill="#a6a6a6"/>
  <path id="svg_62" d="m446.71,450.78l-2.59,0l-16.08,-86.81l-2.37,-14.23l7.62,0l1.73,14.23l11.69,86.81z" fill="#dbdbdb"/>
  <path id="svg_63" d="m435.02,363.97l-6.98,0l-2.37,-14.23l7.62,0l1.73,14.23z" fill="#a6a6a6"/>
  <path id="svg_64" d="m442.6,356.42l-117.8,0l0,-12.41l44.1,0l14.82,-64.65l54.39,0l4.49,77.06z" fill="#dbdbdb"/>
  <path id="svg_65" d="m442.6,356.42l-6.42,0l-4.19,-77.06l6.12,0l4.49,77.06z" fill="#a6a6a6"/>
  <path id="svg_66" fill="#f7a9a0" d="m323.41,460.88c2.22,0.28 62.88,-13.87 64.85,-15.78c0.24,-0.21 -1.9,-11.94 -1.9,-11.94c-0.95,-4.79 -17.48,-43.83 -17.48,-43.83l-39.65,9.79l16.77,36.25s-7.56,5.12 -14,10a88.19,88.19 0 0 0 -8.22,6.57c-1.96,2.33 -2.59,8.68 -0.37,8.94z"/>
  <path id="svg_67" fill="#ebebeb" d="m388.26,445.1c-2,1.91 -62.63,16.06 -64.85,15.78s-1.59,-6.61 0.33,-8.92a88.19,88.19 0 0 1 8.22,-6.57c6.49,-4.88 14,-10 14,-10l-3.74,-8.08l38.42,-9.36c2.91,7.25 5.3,13.49 5.65,15.23c0.07,-0.02 2.21,11.71 1.97,11.92z"/>
  <path id="svg_68" fill="#a6d453" d="m323.24,461.06c2.3,0.24 63.44,-13.47 65.43,-15.47c0.77,-0.74 -0.71,-9.76 -2.81,-20.6c0,-0.11 -0.05,-0.22 -0.07,-0.33l-39.54,8.4l0.16,0.66s-21.05,15.7 -23,18.13s-2.47,8.98 -0.17,9.21z"/>
  <path id="svg_69" fill="#263238" d="m323.4,458.53c10.25,-2.56 51.83,-11.93 62.16,-13.69c0.08,0 0.1,0.05 0,0.07c-10.1,2.76 -51.76,11.79 -62.13,13.79c-0.21,0.04 -0.25,-0.11 -0.03,-0.17zm18.48,-24.38c3.89,-1.66 9,-2.15 12.73,0c0.15,0.08 0,0.29 -0.11,0.28a58,58 0 0 0 -12.49,0.19a0.27,0.27 0 0 1 -0.13,-0.47zm-2.53,2.42c3.89,-1.66 9,-2.15 12.73,0c0.15,0.08 0,0.29 -0.12,0.27a58.52,58.52 0 0 0 -12.48,0.2a0.27,0.27 0 0 1 -0.13,-0.47zm-2.53,2.43c3.88,-1.67 9,-2.16 12.73,0c0.15,0.08 0,0.28 -0.12,0.27a58.52,58.52 0 0 0 -12.48,0.2a0.27,0.27 0 0 1 -0.13,-0.47z"/>
  <path id="svg_70" fill="#263238" d="m337.74,431.86c3.36,1.59 7.3,1.66 10.93,2.15a0.51,0.51 0 0 0 0.52,-0.65a0.12,0.12 0 0 0 0.07,-0.17a22.3,22.3 0 0 0 -8.34,-7.88c-2,-1 -5.2,-1.36 -6.3,1.19s1.15,4.44 3.12,5.36zm-1.77,-3c-1.71,-4.28 3.59,-3 5,-2.19a23.41,23.41 0 0 1 2.67,1.84a64.11,64.11 0 0 1 5,4.49c-1.77,-0.35 -3.55,-0.54 -5.33,-0.83c-2.11,-0.36 -6.39,-0.97 -7.31,-3.34l-0.03,0.03z"/>
  <path id="svg_71" fill="#263238" d="m361.41,424c-1.55,-2.31 -4.63,-1.41 -6.42,0a22.19,22.19 0 0 0 -6.75,9.26a0.11,0.11 0 0 0 0.09,0.15c0,0.32 0.28,0.66 0.64,0.55c3.47,-1.15 7.33,-1.93 10.36,-4.11c1.76,-1.29 3.54,-3.68 2.08,-5.85zm-7.53,7.13c-1.69,0.6 -3.41,1.12 -5.08,1.78c1.32,-1.8 2.56,-3.65 4.06,-5.32a23.57,23.57 0 0 1 2.29,-2.29c1.28,-1.08 6.26,-3.29 5.36,1.24c-0.51,2.46 -4.6,3.86 -6.63,4.58l0,0.01z"/>
  <path id="svg_72" opacity="0.2" d="m341.07,457.54c-9.61,2.1 -17.06,3.6 -17.83,3.52c-2.3,-0.23 -1.79,-6.79 0.16,-9.21a87.51,87.51 0 0 1 8,-6.7l9.67,12.39z"/>
  <path id="svg_73" fill="#37474f" d="m343.39,434l42.09,-9.92s-35.13,-80.51 -32,-84.6c1.54,-2.05 40.73,-2.65 53.19,-13.21c16.19,-13.71 5.33,-34.67 5.33,-34.67l-43.77,-1.3s0.53,9.14 -1.18,10.52c-1.12,0.92 -53.27,5.3 -59,22.87c-7.05,21.58 35.34,110.31 35.34,110.31z"/>
  <path id="svg_74" fill="#263238" d="m343.4,427.52c1.1,-0.52 12,-3.71 14.45,-4.34c4.92,-1.26 9.86,-2.49 14.82,-3.62c2.58,-0.59 8.12,-1.88 8.46,-1.82c0.16,0 0.19,0.31 0,0.35c-4.8,1.59 -9.67,2.93 -14.54,4.28s-21.64,5.4 -23.11,5.49c-0.1,0.01 -0.24,-0.26 -0.08,-0.34zm2.6,-91.63a6.55,6.55 0 0 1 3.3,-1l18.95,-3.18c5.92,-1 11.86,-1.87 17.74,-3c4.87,-0.93 9.83,-2.2 14,-4.84a20.37,20.37 0 0 0 8.61,-11.26a36.17,36.17 0 0 0 1.11,-14.42c-0.11,-1.18 -0.33,-2.35 -0.55,-3.51c0,-0.09 0.13,-0.12 0.15,0c1.6,9 1.74,19.37 -5,26.51c-3.31,3.41 -7.77,5.46 -12.31,6.81a140.73,140.73 0 0 1 -15.92,3.1l-18.95,3.16c-3,0.5 -6.13,0.9 -9.14,1.53a3.07,3.07 0 0 0 -1.65,0.73a2.36,2.36 0 0 0 -0.27,2.19c0.31,1.48 0.71,2.95 1.13,4.41c3.45,11.77 28.91,71.81 29.59,73.1c0.08,0.13 -0.14,0.24 -0.21,0.11c-5.8,-10.33 -24.85,-57.58 -28.68,-68.71a72.47,72.47 0 0 1 -2.48,-8.66c-0.27,-1.09 -0.42,-2.28 0.58,-3.07z"/>
  <path id="svg_75" fill="#f7a9a0" d="m260.81,463.53c2.12,0.72 62.83,-0.14 65.14,-1.62c2.53,-2.4 3.6,-59.67 3.6,-59.67l-39.05,-0.33l-2.44,41.09s-8.43,3.51 -15.77,7a87.72,87.72 0 0 0 -9.37,4.81c-2.36,1.93 -4.23,8.03 -2.11,8.72z"/>
  <path id="svg_76" fill="#ebebeb" d="m328.49,436.11c-0.58,12.87 -1.41,24.74 -2.54,25.8c-2.31,1.48 -63,2.34 -65.14,1.62s-0.25,-6.79 2.1,-8.67a87.72,87.72 0 0 1 9.37,-4.81c7.34,-3.49 15.77,-7 15.77,-7l0.41,-6.92l40.03,-0.02z"/>
  <path id="svg_77" fill="#a6d453" d="m259.56,463.58c2.2,0.72 64.86,0.42 67.24,-1.1c0.91,-0.57 1.4,-9.69 1.67,-20.73l0,-0.34l-40.43,-0.26l0,0.69s-23.94,10.83 -26.38,12.78s-4.29,8.24 -2.1,8.96z"/>
  <path id="svg_78" fill="#263238" d="m260.26,461.15c10.56,-0.31 53.19,-0.57 63.66,-0.07c0.08,0 0.08,0.06 0,0.06c-10.47,0.54 -53.09,0.45 -63.66,0.18c-0.26,-0.01 -0.26,-0.17 0,-0.17zm23.29,-19.86c4.15,-0.8 9.24,-0.18 12.43,2.76c0.12,0.11 0,0.29 -0.18,0.24a58.59,58.59 0 0 0 -12.23,-2.48a0.26,0.26 0 0 1 -0.02,-0.52zm-2.99,1.82c4.15,-0.8 9.24,-0.18 12.43,2.76c0.12,0.11 0,0.29 -0.18,0.24a58.56,58.56 0 0 0 -12.24,-2.48a0.26,0.26 0 0 1 -0.01,-0.52zm-3,1.82c4.16,-0.8 9.24,-0.18 12.43,2.76c0.13,0.11 0,0.29 -0.17,0.24a58.56,58.56 0 0 0 -12.24,-2.48a0.26,0.26 0 0 1 -0.02,-0.52z"/>
  <path id="svg_79" fill="#263238" d="m280,438.16c2.95,2.27 6.78,3.19 10.22,4.44a0.52,0.52 0 0 0 0.65,-0.52a0.11,0.11 0 0 0 0.1,-0.15a22.17,22.17 0 0 0 -6.45,-9.48c-1.74,-1.45 -4.79,-2.44 -6.41,-0.19s0.16,4.58 1.89,5.9zm-1.07,-3.33c-0.76,-4.55 4.15,-2.18 5.39,-1.07a23.58,23.58 0 0 1 2.21,2.37a66.65,66.65 0 0 1 3.89,5.45c-1.65,-0.72 -3.35,-1.29 -5,-1.94c-2.03,-0.79 -6.09,-2.3 -6.5,-4.81l0.01,0z"/>
  <path id="svg_80" fill="#263238" d="m304.8,435.54c-1,-2.59 -4.21,-2.37 -6.26,-1.39a22.15,22.15 0 0 0 -8.58,7.6a0.11,0.11 0 0 0 0.06,0.17a0.51,0.51 0 0 0 0.5,0.66c3.64,-0.37 7.58,-0.31 11,-1.79c1.99,-0.86 4.25,-2.79 3.28,-5.25zm-8.88,5.35c-1.78,0.23 -3.57,0.37 -5.35,0.66c1.68,-1.48 3.29,-3 5.11,-4.33a23,23 0 0 1 2.73,-1.75c1.48,-0.78 6.82,-1.87 5,2.35c-1.05,2.33 -5.36,2.81 -7.49,3.07z"/>
  <path id="svg_81" fill="#37474f" d="m285.89,441.62l44.05,0s-0.56,-79.47 2.89,-83.88c4.6,-5.88 69,-5.74 82.81,-24.91c12.4,-17.21 1.93,-41.58 1.93,-41.58l-48.76,-1.44a100.06,100.06 0 0 0 4.52,15.33s-58.75,10.86 -75.21,28.86c-11.12,12.13 -12.23,107.62 -12.23,107.62z"/>
  <path id="svg_82" fill="#263238" d="m364.75,301.83a22.31,22.31 0 0 1 4.13,1.32c1.4,0.53 2.78,1.14 4.13,1.79a83.4,83.4 0 0 1 7.71,4.36c0.08,0.05 0,0.16 -0.07,0.12c-2.64,-1.37 -5.37,-2.6 -8.1,-3.78l-3.94,-1.64a42.91,42.91 0 0 1 -4,-1.76c-0.15,-0.14 -0.05,-0.45 0.14,-0.41z"/>
  <path id="svg_83" fill="#263238" d="m367.67,289.8c0.56,2.23 1.05,4.47 1.69,6.67c0.29,1 0.58,2 1,3c0.32,0.83 0.81,1.77 1.77,2c1.11,0.21 1.42,-0.73 1.33,-1.65s-0.36,-2 -0.56,-3c-0.23,-1.16 -0.47,-2.31 -0.68,-3.47c-0.1,-0.58 -0.21,-1.16 -0.31,-1.74c0,-0.14 -0.13,-1.25 -0.21,-1.57c0,0 0,0.05 -0.06,0.05a0.07,0.07 0 0 1 -0.07,-0.06a0.13,0.13 0 0 1 0.06,-0.16a0.08,0.08 0 0 1 0.1,0c0.21,0.11 0.22,0.4 0.29,0.62c0.18,0.56 0.37,1.12 0.53,1.69c0.31,1.06 0.61,2.12 0.88,3.19s0.53,2.15 0.8,3.22a5.06,5.06 0 0 1 0.21,2.47a1.89,1.89 0 0 1 -1.75,1.42a1.55,1.55 0 0 1 0.12,0.22c0.1,0.22 0.17,0.45 0.25,0.67s0.16,0.46 0.23,0.7a2,2 0 0 1 0.06,0.34l0,0.39c0,0.13 -0.25,0.32 -0.35,0.12s-0.14,-0.2 -0.21,-0.31s-0.11,-0.25 -0.16,-0.37s-0.14,-0.45 -0.19,-0.68s-0.13,-0.45 -0.17,-0.67s0,-0.28 0,-0.41a2.56,2.56 0 0 1 -1.28,-0.49a4.2,4.2 0 0 1 -1.33,-2c-0.34,-0.93 -0.6,-1.89 -0.86,-2.83a41.73,41.73 0 0 1 -1.42,-7.17c-0.13,-0.35 0.23,-0.45 0.29,-0.19zm29,5.45c0.21,1.1 0.33,2.21 0.59,3.31s0.54,2.14 0.89,3.18a11.21,11.21 0 0 0 1.36,2.86a10.48,10.48 0 0 0 2.16,2.2a18.63,18.63 0 0 0 5.23,2.91a24.65,24.65 0 0 0 2.9,0.85c0.51,0.11 1,0.2 1.55,0.27a3.27,3.27 0 0 1 1.25,0.29a0.25,0.25 0 0 1 0,0.43a4.4,4.4 0 0 1 -2.31,0.07a16,16 0 0 1 -2.47,-0.43a17.93,17.93 0 0 1 -4.67,-2a14.83,14.83 0 0 1 -3.9,-3.19a11.08,11.08 0 0 1 -2.09,-4.57a22.42,22.42 0 0 1 -0.68,-6.21a0.11,0.11 0 0 1 0.19,0.03z"/>
  <path id="svg_84" fill="#263238" d="m323.6,386.5q0.64,-10.37 1.72,-20.71c0.18,-1.7 0.35,-3.4 0.56,-5.1a15.49,15.49 0 0 1 0.86,-3.87c1,-2.59 3.17,-3.9 5.78,-4.56c3.08,-0.78 6.27,-1.24 9.4,-1.75s6.42,-1 9.64,-1.43c6.51,-0.91 13,-1.74 19.51,-2.83a156.36,156.36 0 0 0 19.15,-4.31c5.76,-1.74 11.67,-3.89 16.28,-7.88c9.93,-8.59 10.29,-23 9.08,-35c-0.17,-1.7 -0.38,-3.4 -0.59,-5.1c0,-0.09 0.13,-0.12 0.14,0c0.79,6.79 1.7,13.61 1,20.45a33.39,33.39 0 0 1 -5.42,15.83c-3.36,4.81 -8.34,7.92 -13.71,10.09a108.1,108.1 0 0 1 -18.27,5.26c-12.87,2.69 -26,3.83 -38.95,6.05c-1.6,0.27 -3.19,0.56 -4.78,0.87a19.54,19.54 0 0 0 -4.32,1.15c-2.94,1.32 -3.75,4.18 -4.11,7.13c-0.85,6.86 -1.42,13.77 -1.92,20.66c-1,13.9 -1.53,27.86 -1.51,41.8l0,9.22c0,0.15 -0.23,0.14 -0.23,0c-0.37,-14.03 -0.19,-32.04 0.69,-45.97zm-35.6,48.22c10.05,-0.69 38.66,-0.41 39,-0.27a0.2,0.2 0 0 1 0,0.36c-5.05,0.36 -37.46,0.53 -38.91,0.26c-0.25,-0.07 -0.31,-0.34 -0.09,-0.35zm85,-129.43a164.3,164.3 0 0 0 -26.6,5.45a185.41,185.41 0 0 0 -25.65,9.26c-4.67,2.1 -9.18,4.44 -13.66,6.9c-0.09,0.05 0,0.18 0.08,0.13a209.39,209.39 0 0 1 25,-10.89a200.68,200.68 0 0 1 26,-7.53c5,-1.08 10,-1.92 15,-2.76c0.28,-0.03 0.19,-0.6 -0.17,-0.56z"/>
  <path id="svg_85" fill="#263238" d="m330.12,375.53c0.31,-4.79 0.81,-9.57 1.59,-14.3c0.32,-1.92 0.41,-4.39 2.41,-5.34c0.93,-0.44 19.6,-3.68 22.27,-3.63a0.12,0.12 0 0 1 0.06,0.23c-0.24,0.11 -18,3.47 -20.23,4a3.57,3.57 0 0 0 -2.5,1.29a9.22,9.22 0 0 0 -0.75,3.07a197.41,197.41 0 0 0 -2.48,28.1c-0.07,2.6 -0.11,5.21 -0.13,7.81s0.09,5.38 -0.11,8.05a0.22,0.22 0 0 1 -0.44,0c-0.2,-2.43 -0.13,-4.89 -0.14,-7.33s0,-4.88 0,-7.32c0.01,-4.89 0.13,-9.77 0.45,-14.63z"/>
  <path id="svg_86" fill="#37474f" d="m331.27,214.39l10.85,26.69a1,1 0 0 1 -0.7,1.6l-14.28,2a2.33,2.33 0 0 1 -2.18,-1.19l-10.86,-26.69a1,1 0 0 1 0.71,-1.6l14.27,-2a2.34,2.34 0 0 1 2.19,1.19z"/>
  <path id="svg_87" fill="#455a64" d="m329.57,214.62l10.85,26.68c0.41,0.77 0.1,1.49 -0.7,1.6l-14.27,2a2.32,2.32 0 0 1 -2.19,-1.19l-10.85,-26.71c-0.41,-0.77 -0.1,-1.49 0.7,-1.6l14.27,-2a2.35,2.35 0 0 1 2.19,1.22z"/>
  <path id="svg_88" fill="#263238" d="m325.83,216.43a1.23,1.23 0 1 0 1,-1.41a1.24,1.24 0 0 0 -1,1.41z"/>
  <path id="svg_89" fill="#f7a9a0" d="m383.16,249.82c-5.5,18.38 -20.28,43.4 -27.76,44.62c-3.56,0.58 -9.8,2.38 -15.09,-1c-11.54,-7.42 -22.63,-23.24 -25.84,-32.77c-1.14,-3.39 14.68,-13.46 17.6,-11c6.85,5.76 15.6,17.77 16.63,17.54c3.79,-0.87 16.92,-15.6 26.08,-26c11.11,-12.54 10.57,1.28 8.38,8.61zm-71.79,-7.09c0.73,-7.33 2.05,-9.1 -0.62,-15.63c-1.75,-4.28 0.23,-7.23 3.91,-4.14c6,5.06 7.06,14.73 6.46,18.18l-9.75,1.59z"/>
  <path id="svg_90" fill="#f7a9a0" d="m315.75,263.57s-4.62,-9.38 -4.61,-17.27c0,-5.46 1.35,-17.34 15.39,-25.6c3.34,-2 9.47,-2.39 5.19,2.79c-3,3.67 -6.07,5.09 -7.45,7.55c0,0 7.87,0.38 9.7,3.79a70.89,70.89 0 0 1 4.15,9.27a15.47,15.47 0 0 1 -1.66,0.93s1.62,3.25 -0.19,8.47l-20.52,10.07z"/>
  <path id="svg_91" fill="#f7a9a0" d="m312,241.09c1.88,-2.16 5.95,-6.65 10.56,-9.17c5.12,-2.8 15.74,-6.81 17.77,-3c1.49,2.78 -2.43,4.67 -2.43,4.67s4.73,-0.73 5.53,2.08c0.72,2.56 -2.4,3.84 -2.4,3.84s2.95,0.05 3.17,2.65c0.26,3.13 -6,2.51 -8.43,5.92c-0.58,0.75 -23.77,-6.99 -23.77,-6.99z"/>
  <path id="svg_92" fill="#263238" d="m324.6,237.82a23.2,23.2 0 0 1 13.17,-4.3c0.12,0 0.19,0.09 0.08,0.11a56.91,56.91 0 0 0 -13.22,4.24l-0.03,-0.05zm2.97,5.09a26.11,26.11 0 0 1 13.43,-3.51c0.12,0 0.18,0.1 0.07,0.12a60.66,60.66 0 0 0 -13.47,3.48s-0.05,-0.08 -0.03,-0.09z"/>
  <path id="svg_93" fill="#a6d453" d="m315.38,267.86s18,25.32 26.54,27.28s13.27,0.53 16.2,-0.37a8.05,8.05 0 0 0 2.94,-2c7.27,-7 18.74,-29.74 22.92,-42.17c3.14,-9.34 1.46,-17.12 -4.88,-13.58a22.84,22.84 0 0 0 -5.61,4.89c-10.8,12.21 -23.67,24.23 -24.4,24s-9.54,-10.44 -9.54,-10.44l-24.17,12.39z"/>
  <path id="svg_94" opacity="0.2" d="m315.38,267.86s18,25.32 26.54,27.28s13.27,0.53 16.2,-0.37a8.05,8.05 0 0 0 2.94,-2c7.27,-7 18.74,-29.74 22.92,-42.17c3.14,-9.34 1.46,-17.12 -4.88,-13.58a22.84,22.84 0 0 0 -5.61,4.89c-10.8,12.21 -23.67,24.23 -24.4,24s-9.54,-10.44 -9.54,-10.44l-24.17,12.39z"/>
  <path id="svg_95" fill="#263238" d="m319.57,272.33c0.84,-0.65 9,-5.34 10.84,-6.32s9.13,-5.06 11.07,-5.92a0.07,0.07 0 1 1 0.07,0.13c-1.74,1.2 -9.12,5.34 -10.94,6.37s-10,5.5 -11,5.87c-0.07,0.03 -0.1,-0.08 -0.04,-0.13z"/>
  <path id="svg_96" fill="#a6d453" d="m363.34,301.48c1.29,1.43 59.78,11.71 60.1,11.34c0.86,-1 -6.26,-57.09 -28.52,-77.8c-3.92,-3.65 -11,-2.73 -14.24,-0.93c-1.64,0.9 -7.3,8.86 -9,15.84s-9.14,50.64 -8.34,51.55z"/>
  <path id="svg_97" fill="#37474f" d="m412.58,264.67l-43.29,-2.67c0.19,-1.06 0.37,-2.07 0.55,-3l41.53,2.59a60,60 0 0 1 1.21,3.08zm2.21,6.33l-46.58,-2.92c0.19,-1 0.36,-2.05 0.54,-3l45,2.82c0.35,0.97 0.7,2.02 1.04,3.1z"/>
  <path id="svg_98" fill="#a6d453" d="m398.84,236.38c19.84,10.07 42.61,32.81 41.28,40.37c-1.49,8.43 -30,-5.81 -29.71,-7.07c0.25,-1.08 -5.74,-10.13 -14.3,-23.1c-8.71,-13.19 -2.18,-12.69 2.73,-10.2z"/>
  <path id="svg_99" opacity="0.2" d="m398.84,236.38c19.84,10.07 42.61,32.81 41.28,40.37c-1.49,8.43 -30,-5.81 -29.71,-7.07c0.25,-1.08 -5.74,-10.13 -14.3,-23.1c-8.71,-13.19 -2.18,-12.69 2.73,-10.2z"/>
  <path id="svg_100" fill="#f7a9a0" d="m440.12,276.75c-1.74,5.89 -10.52,9.83 -31.68,21.84c-2.93,1.66 -20.22,-15.86 -17.18,-17.79c3.83,-2.44 19.2,-11.07 20.4,-11.56c10.15,-4.12 29.64,3.52 28.46,7.51z"/>
  <path id="svg_101" fill="#f7a9a0" d="m395.45,278.25s-9.11,4.66 -13.14,8.58a36.21,36.21 0 0 0 -8.77,14.92c-1.82,6.05 -2.05,21.93 2.52,22.79c4.12,0.79 3.54,-15.46 3.54,-15.46s-2.14,16.66 3,16.69s3.4,-18.77 3.4,-18.77s-1.81,17.17 3.5,16.35c4,-0.61 3.39,-17.74 3.39,-17.74s-1.45,14.76 2.7,14.31c4.59,-0.5 5,-16.35 5,-16.35c10.37,-2.93 14.11,-8.57 16.29,-12.89c0.53,-1.07 -21.43,-12.43 -21.43,-12.43z"/>
  <path id="svg_102" fill="#263238" d="m380,303.27c-0.32,2 -0.66,3.92 -0.81,5.89s-0.23,3.95 -0.19,5.92a34,34 0 0 0 0.87,7.67c-0.7,-4.54 -0.29,-11.6 -0.14,-13.57s0.2,-3.94 0.34,-5.91c-0.02,-0.05 -0.07,-0.05 -0.07,0zm7.09,0.4c-0.3,2.51 -0.69,5 -0.89,7.5s-0.15,4.91 -0.17,7.42c0,0.19 0.1,0.13 0.11,-0.06c0.12,-2.51 0.43,-4.83 0.57,-7.34s0.2,-5 0.44,-7.51l-0.06,-0.01zm6.18,-0.75a56,56 0 0 0 -0.48,11.57c0,0.19 0.13,0.1 0.13,-0.1c0.09,-3.85 0.13,-6.87 0.48,-11.45c0,-0.07 -0.12,-0.1 -0.13,-0.02z"/>
  <path id="svg_103" fill="#a6d453" d="m390.9,278.75s24.38,18.57 24.64,18.47s24.2,-14.15 24.58,-20.47s-19.44,-11 -28.44,-7.55s-20.78,9.55 -20.78,9.55z"/>
  <path id="svg_104" opacity="0.2" d="m390.9,278.75s24.38,18.57 24.64,18.47s24.2,-14.15 24.58,-20.47s-19.44,-11 -28.44,-7.55s-20.78,9.55 -20.78,9.55z"/>
  <path id="svg_105" fill="#263238" d="m399.16,276.06c0.95,0.58 8.65,6.78 10.29,8.16s8.42,7 10,8.54a0.08,0.08 0 0 1 -0.1,0.12c-1.83,-1.24 -8.68,-6.86 -10.38,-8.24s-9.18,-7.67 -9.9,-8.47c-0.07,-0.07 0.03,-0.17 0.09,-0.11zm23.36,-7.8c-2.09,-0.33 -7.85,-0.81 -12.52,1.53c-0.05,0 0,0.09 0,0.07a38.59,38.59 0 0 1 12.47,-1.53c0.08,0.01 0.1,-0.06 0.05,-0.07z"/>
  <path id="svg_106" fill="#37474f" d="m378.53,234.94c-2.48,2.21 -3.39,9.56 1.38,11s11.36,-6.31 12.13,-10.53s-8.04,-5.41 -13.51,-0.47z"/>
  <path id="svg_107" fill="#f7a9a0" d="m379.92,244c3.41,0.75 9.14,-4.53 11.37,-8.76c0.16,-0.29 -1.23,-11.78 -1.27,-14.09c0,-0.47 -14.42,3.76 -14.42,3.76a37.05,37.05 0 0 1 1.55,8.82c0,0.38 -0.52,9.59 2.77,10.27z"/>
  <path id="svg_108" fill="#263238" d="m389.57,221.19c-0.67,3.73 -3.16,13.43 -11,13.75a9.16,9.16 0 0 1 -1.41,-0.06l0,-1.11a37.05,37.05 0 0 0 -1.56,-8.77l0.24,-0.07c0.1,0 0.24,-0.07 0.4,-0.12l0.16,-0.05l0.32,-0.09l0.4,-0.12l0.67,-0.19l0.25,-0.07l0.52,-0.15l2,-0.58l0.78,-0.22l1,-0.28l1,-0.27l0.13,0l1.68,-0.46l0.56,-0.15l1.07,-0.28l0.72,-0.18l1.41,-0.33l0.31,-0.06l0.35,-0.14z"/>
  <path id="svg_109" fill="#f7a9a0" d="m389.67,203.44c2.25,4.87 1.58,19.91 -1.59,23.68c-4.59,5.46 -13.11,7.09 -18,1.35c-4.75,-5.56 -3.54,-25.15 0.09,-28.68c5.34,-5.2 16.17,-3.54 19.5,3.65z"/>
  <path id="svg_110" fill="#263238" d="m376.3,214.33s0.08,0 0.07,0.09c-0.07,1 0,2.18 0.92,2.56l0,0.05c-1.12,-0.2 -1.22,-1.76 -0.99,-2.7z"/>
  <path id="svg_111" fill="#263238" d="m377.25,213.31c1.63,-0.06 1.63,3.21 0.11,3.26s-1.49,-3.21 -0.11,-3.26zm-6.56,1.17s-0.08,0.05 -0.08,0.09c0,1 -0.1,2.18 -1,2.52c0,0 0,0.06 0,0c1.11,-0.09 1.27,-1.66 1.08,-2.61z"/>
  <path id="svg_112" fill="#263238" d="m369.78,213.42c-1.63,-0.12 -1.76,3.15 -0.25,3.26s1.62,-3.16 0.25,-3.26zm8.76,-1.61a11.26,11.26 0 0 1 -1.27,-0.45a2.22,2.22 0 0 1 -1.21,-0.7a0.7,0.7 0 0 1 0.11,-0.84a1.77,1.77 0 0 1 1.74,-0.18a2.54,2.54 0 0 1 1.45,1.1a0.74,0.74 0 0 1 -0.82,1.07zm-10.02,1.06c0.45,-0.08 0.86,-0.22 1.3,-0.34a2.11,2.11 0 0 0 1.26,-0.6a0.68,0.68 0 0 0 0,-0.84a1.7,1.7 0 0 0 -1.71,-0.32a2.5,2.5 0 0 0 -1.54,1a0.74,0.74 0 0 0 0.69,1.1zm8.98,10.86c-0.24,0.23 -0.48,0.56 -0.85,0.59a2.75,2.75 0 0 1 -1.09,-0.25l-0.05,0.05a1.38,1.38 0 0 0 1.29,0.55a1.08,1.08 0 0 0 0.8,-0.9c0.02,-0.06 -0.06,-0.08 -0.1,-0.04z"/>
  <path id="svg_113" fill="#263238" d="m376.44,220.69a3.5,3.5 0 0 1 -2.31,1.54a4.34,4.34 0 0 1 -1.25,0.05l-0.46,0a0.26,0.26 0 0 1 -0.2,-0.23a0.41,0.41 0 0 1 0,-0.11l0,-0.09c0,-0.78 0.06,-2 0.06,-2c-0.29,0.14 -1.74,0.8 -1.72,0.39a52.11,52.11 0 0 1 1.34,-10.45c0,-0.11 0.2,-0.09 0.19,0c-0.07,3.26 -0.71,6.48 -0.83,9.74a6.3,6.3 0 0 1 1.64,-0.49c0.11,0 -0.19,2.29 -0.15,2.64a4.78,4.78 0 0 0 3.58,-1.11c0.09,-0.03 0.17,0.04 0.11,0.12z"/>
  <path id="svg_114" fill="#263238" d="m373.35,221.89a4.11,4.11 0 0 0 1.64,1.27a1.93,1.93 0 0 0 1.12,0.07c0.81,-0.21 0.83,-1 0.68,-1.59a4.42,4.42 0 0 0 -0.36,-1a5.34,5.34 0 0 1 -3.08,1.25z"/>
  <path id="svg_115" fill="#ff99ba" d="m375,223.16a1.93,1.93 0 0 0 1.12,0.07c0.81,-0.21 0.83,-1 0.68,-1.59a1.9,1.9 0 0 0 -1.8,1.52z"/>
  <path id="svg_116" fill="#263238" d="m368.33,205.88c5.31,3.33 12.15,-2.31 12.15,-2.31a5.63,5.63 0 0 0 5.84,3.32s1.37,8.68 3.67,8.57c3.51,-0.17 4.11,-12.11 2.91,-14.4s-4.21,-2.77 -4.21,-2.77a5.69,5.69 0 0 0 -2.53,-3.37c-2.47,-1.74 -10.64,1.07 -10.64,1.07a7.65,7.65 0 0 0 -2.23,-2.77a2.19,2.19 0 0 0 -3.12,0.41a5.15,5.15 0 0 1 0.93,2.12c0.52,2.54 -1.57,2.62 -1.64,0.3a3.62,3.62 0 0 1 0.71,-2.42c-1.09,-1.47 -2.79,-1.89 -3.78,-1c-1.8,1.51 -2.47,10.49 1.94,13.25z"/>
  <path id="svg_117" fill="#f7a9a0" d="m388.17,215.83s2.78,-5.15 5.08,-4.21s0.6,8.12 -1.83,9.36a2.6,2.6 0 0 1 -3.62,-1l0.37,-4.15z"/>
  <path id="svg_118" fill="#263238" d="m392.71,213.66l0,0.07c-1.7,0.93 -2.44,2.69 -2.9,4.47a1.45,1.45 0 0 1 2.09,-0.64a0.05,0.05 0 0 1 0,0.1a1.61,1.61 0 0 0 -1.68,0.76a7.31,7.31 0 0 0 -0.67,1.51c-0.06,0.17 -0.36,0.12 -0.32,-0.07l0,-0.05c-0.32,-2.26 1.07,-5.63 3.48,-6.15z"/>
  <path id="svg_119" fill="#a6d453" d="m101.37,375.86c6.35,-13.05 17.46,-19.75 30,-16.05s14.46,21.16 5.11,25.57s-18.69,-8.46 -23.63,-11.11s-11.48,1.59 -11.48,1.59z"/>
  <path id="svg_120" fill="#263238" d="m95.23,410.6c0,-1.58 0.09,-3.15 0.15,-4.72c0.11,-3.14 0.21,-6.28 0.33,-9.42c0.21,-5.75 0.83,-11.39 3.21,-16.69a25.93,25.93 0 0 1 10.08,-11.6a21.21,21.21 0 0 1 5.3,-2.29a12.43,12.43 0 0 1 6.18,-3.39a25.07,25.07 0 0 1 8.81,-0.22c0.1,0 0.1,0.18 0,0.16a21.1,21.1 0 0 0 -8.33,0.6a15.09,15.09 0 0 0 -5.3,2.53a17.2,17.2 0 0 1 10.31,0.95a7.73,7.73 0 0 1 2.08,-0.17a12.47,12.47 0 0 1 2.72,0.38a20.71,20.71 0 0 1 5.13,2.28a0.08,0.08 0 0 1 -0.09,0.14a19.58,19.58 0 0 0 -5,-1.89a17.26,17.26 0 0 0 -2.58,-0.38a13.83,13.83 0 0 0 -1.44,0a16.64,16.64 0 0 1 8.1,8.07c0,0.1 -0.1,0.18 -0.15,0.08a15.23,15.23 0 0 0 -10.32,-8.27c-0.27,-0.07 -0.55,-0.11 -0.83,-0.16a11,11 0 0 1 0.13,1.26c0.08,0.64 0.19,1.27 0.32,1.89a31.14,31.14 0 0 0 1,3.82a27.78,27.78 0 0 0 1.52,3.71a17.56,17.56 0 0 0 2.11,3.57c0.08,0.09 -0.07,0.2 -0.13,0.1c-0.75,-1.18 -1.63,-2.26 -2.31,-3.49a25.63,25.63 0 0 1 -1.7,-3.64a24.52,24.52 0 0 1 -1.12,-3.91q-0.21,-1.06 -0.33,-2.13a5.06,5.06 0 0 1 -0.08,-1.29a16.92,16.92 0 0 0 -4.44,-0.09c0.55,3.11 1.15,6.35 2.89,9.06c0.06,0.09 -0.09,0.17 -0.14,0.08a35.71,35.71 0 0 1 -2.15,-4.45a16.85,16.85 0 0 1 -1.08,-4.64a20.48,20.48 0 0 0 -7.35,2.46a24.39,24.39 0 0 0 -9.79,10.71a40.28,40.28 0 0 0 -3.62,15.35c-0.42,6.67 -0.51,13.38 -1.17,20c0,0.44 -0.74,0.58 -0.82,0.09a23.73,23.73 0 0 1 -0.1,-4.45zm14.67,-43.48a7.3,7.3 0 0 1 1.44,-1.33c0.52,-0.43 1.06,-0.85 1.62,-1.23a12.05,12.05 0 0 1 3.6,-1.67a0.08,0.08 0 1 1 0,0.16a9.64,9.64 0 0 0 -3.56,1.75c-0.53,0.39 -1,0.81 -1.53,1.24a9.58,9.58 0 0 1 -1.46,1.24a0.12,0.12 0 0 1 -0.11,-0.16z"/>
  <path id="svg_121" fill="#263238" d="m130.17,371.85a38.86,38.86 0 0 1 2.91,3.85a23.08,23.08 0 0 1 2.16,4.3s-0.05,0.07 -0.07,0a51.58,51.58 0 0 0 -5.12,-8.06c-0.05,-0.06 0.05,-0.17 0.12,-0.09zm-13.66,-1.29a9.31,9.31 0 0 0 0.71,2.36a16,16 0 0 0 1.21,2.09c0,0.05 0,0.09 -0.07,0.06a8.46,8.46 0 0 1 -2,-4.47c-0.03,-0.1 0.13,-0.15 0.15,-0.04z"/>
  <path id="svg_122" fill="#a6d453" d="m96.11,376.18s-9,-11.3 -26.34,-7.29c-16.49,3.8 -24.1,34 -7.44,37.66s13.73,-24.37 19.8,-29.11c4.46,-3.44 10.87,-2.74 13.98,-1.26z"/>
  <path id="svg_123" fill="#263238" d="m56.37,385.4a33.79,33.79 0 0 1 3.57,-2.74a15.49,15.49 0 0 1 3.82,-1.9a22,22 0 0 1 7.5,-7.09l-0.52,0a25.23,25.23 0 0 0 -2.75,0a15.26,15.26 0 0 0 -5.36,1.33c-0.1,0 -0.17,-0.11 -0.07,-0.15a24.44,24.44 0 0 1 5.35,-1.61a15,15 0 0 1 4.17,-0.15l0.27,0a23.87,23.87 0 0 1 5,-1.84l-0.49,-0.13a25,25 0 0 0 -2.57,-0.42a20,20 0 0 0 -5.19,0.08c-0.11,0 -0.14,-0.15 0,-0.16a32.85,32.85 0 0 1 5.25,-0.22a22.37,22.37 0 0 1 4.36,0.57a22.29,22.29 0 0 1 3.17,-0.36c6,-0.26 12.64,2 16.37,7s4.45,11.61 5.11,17.62a132.88,132.88 0 0 1 0.66,25.22c0,0.5 -0.73,0.41 -0.75,-0.06c-0.23,-7.14 -0.48,-14.27 -1.16,-21.37c-0.32,-3.29 -0.67,-6.6 -1.21,-9.86a28.94,28.94 0 0 0 -2.4,-8.11a14.83,14.83 0 0 0 -5.85,-6.3a19.76,19.76 0 0 0 -8.3,-2.55a22.15,22.15 0 0 0 -7.78,0.73a4.9,4.9 0 0 1 0,1.53a8.21,8.21 0 0 1 -0.38,1.9a9.55,9.55 0 0 1 -0.72,1.68c-0.33,0.6 -0.73,1.13 -1.09,1.7c-0.05,0.09 -0.2,0 -0.13,-0.1a7.78,7.78 0 0 0 1.34,-3.42a13,13 0 0 0 0.21,-1.77l0,-1.34a23.07,23.07 0 0 0 -7.57,4c-0.42,0.34 -0.83,0.7 -1.23,1.06a8.34,8.34 0 0 1 1.49,1.83a17.76,17.76 0 0 1 1.51,2.73a23.73,23.73 0 0 1 1.6,6c0,0.1 -0.15,0.13 -0.16,0a17.37,17.37 0 0 0 -2,-5.72a24.23,24.23 0 0 0 -1.44,-2.48c-0.3,-0.41 -0.6,-0.83 -0.92,-1.23c-0.17,-0.21 -0.35,-0.43 -0.51,-0.66a23.83,23.83 0 0 0 -4.92,6.93a11.71,11.71 0 0 1 2,2.93a26.11,26.11 0 0 1 1.66,3.5a59.64,59.64 0 0 1 2.07,7.07a0.09,0.09 0 0 1 -0.17,0a29.28,29.28 0 0 0 -2.46,-7c-0.51,-1.09 -1.06,-2.16 -1.64,-3.22a29.45,29.45 0 0 1 -1.63,-3a22.36,22.36 0 0 0 -2,8a0.08,0.08 0 1 1 -0.16,0a28,28 0 0 1 3.89,-12.33c-1.06,0.45 -2.13,0.88 -3.15,1.43a17.47,17.47 0 0 0 -3.6,2.54c-0.06,0.11 -0.17,-0.02 -0.09,-0.09z"/>
  <path id="svg_124" fill="#263238" d="m69.09,386c0.53,1.72 1.18,3.38 1.65,5.11a20,20 0 0 1 0.77,5.1c0,0.05 -0.08,0.05 -0.09,0a49.42,49.42 0 0 0 -2.48,-10.16a0.08,0.08 0 1 1 0.15,-0.05zm-10.99,-4.21a9.83,9.83 0 0 1 2.3,-1.64a16.81,16.81 0 0 1 2.66,-0.94c0.1,0 0.14,0.14 0,0.16a10.19,10.19 0 0 0 -2.56,1.06a20.38,20.38 0 0 0 -2.36,1.44c-0.02,0.05 -0.09,-0.03 -0.04,-0.08z"/>
  <path id="svg_125" fill="#a6d453" d="m87.57,361.09s-1.66,-20.3 -16.75,-26.88c-12.6,-5.49 -19.82,8.67 -10.91,17.33c7.21,7.02 18.76,3.85 27.66,9.55z"/>
  <path id="svg_126" fill="#263238" d="m62.7,338.14a63.29,63.29 0 0 1 6.71,3.18a47.54,47.54 0 0 1 5.21,3.46c-0.25,-0.52 -0.46,-1 -0.72,-1.55a24.53,24.53 0 0 0 -1.28,-2.3a21.84,21.84 0 0 0 -3.32,-4.21c-0.08,-0.07 0,-0.19 0.12,-0.11a34.78,34.78 0 0 1 3.5,4.07a25.93,25.93 0 0 1 1.43,2.3a9,9 0 0 1 1,2.34l0.17,0.12a49,49 0 0 1 7.21,7.05c0,-0.2 -0.09,-0.4 -0.14,-0.58c-0.28,-1 -0.59,-2 -0.91,-3a25.06,25.06 0 0 0 -2.68,-5.91c-0.06,-0.09 0.09,-0.17 0.15,-0.08a48.13,48.13 0 0 1 3.16,5.77a22.63,22.63 0 0 1 1,3a13.83,13.83 0 0 1 0.49,2c0.66,0.83 1.3,1.68 1.91,2.54c6.48,9.23 9.73,20.38 10.51,31.54a95.34,95.34 0 0 1 0.17,10a62.44,62.44 0 0 1 -0.88,10c0,0.21 -0.37,0.15 -0.37,-0.06c0.08,-2.93 0.38,-5.85 0.44,-8.79s0,-5.88 -0.29,-8.81a81.81,81.81 0 0 0 -3.29,-17.11a61.79,61.79 0 0 0 -7.67,-16.24c-0.64,-0.13 -1.27,-0.3 -1.89,-0.46s-1.51,-0.39 -2.26,-0.6a22.59,22.59 0 0 1 -4.18,-1.58c-0.09,-0.05 0,-0.2 0.09,-0.14a13.7,13.7 0 0 0 4.27,1.47c1.18,0.23 2.4,0.39 3.59,0.66a58.31,58.31 0 0 0 -3.51,-4.61a26.42,26.42 0 0 1 -8.59,-0.64a35.42,35.42 0 0 1 -4.39,-1.37c-1.51,-0.58 -2.94,-1.33 -4.44,-2c-0.11,0 0,-0.21 0.07,-0.15a24.94,24.94 0 0 0 8.71,2.85a54.18,54.18 0 0 0 8.14,0.68c-1.08,-1.23 -2.18,-2.43 -3.36,-3.56c-4,-3.77 -8.68,-7.24 -13.9,-9.05c-0.13,0 -0.08,-0.16 0.02,-0.12z"/>
  <path id="svg_127" fill="#263238" d="m75,338.2a22.36,22.36 0 0 1 1.85,2.71a14.32,14.32 0 0 1 1.33,3.15l-0.06,0c-0.5,-1 -0.93,-2 -1.44,-3a14.56,14.56 0 0 0 -1.8,-2.74c-0.09,-0.08 0.04,-0.2 0.12,-0.12zm-14,6.8a15.18,15.18 0 0 0 3,1.25a26.8,26.8 0 0 0 3.16,0.85l0,0.09a15.2,15.2 0 0 1 -3.26,-0.72a27,27 0 0 1 -3.06,-1.37c-0.07,-0.04 0.02,-0.19 0.16,-0.1z"/>
  <path id="svg_128" fill="#a6d453" d="m99.3,357.43c0.09,0.88 2.28,-7.36 15,-14.69c11.59,-6.65 25.42,-23.94 14.06,-34.86c-9.13,-8.82 -33.29,10.4 -29.06,49.55z"/>
  <path id="svg_129" fill="#263238" d="m90.52,404.71a226.91,226.91 0 0 1 2,-25.65a116,116 0 0 1 5.39,-23c0.95,-2.68 2,-5.32 3.21,-7.92a18.1,18.1 0 0 1 0.06,-3c0.06,-1.29 0.18,-2.59 0.3,-3.89s0.25,-2.59 0.4,-3.88s0.43,-2.58 0.48,-3.87c0,-0.12 0.19,-0.09 0.17,0a25.6,25.6 0 0 0 -0.46,4.1c-0.1,1.26 -0.17,2.51 -0.21,3.76s0,2.51 0,3.77l0,1.42c1.2,-2.54 2.48,-5 3.88,-7.46c-0.87,-5.3 0.25,-10.83 1.33,-16a0.08,0.08 0 0 1 0.16,0.05a45.08,45.08 0 0 0 -0.84,8.2c0,2.17 0,4.34 0.06,6.52c0.31,-0.52 0.61,-1.05 0.93,-1.56c1.65,-2.7 3.42,-5.35 5.3,-7.92a12.54,12.54 0 0 1 0.12,-3.77a29.2,29.2 0 0 1 0.93,-4.12a40,40 0 0 1 1.41,-4c0.55,-1.34 1.29,-2.61 1.82,-4a0.08,0.08 0 1 1 0.15,0.07a19.54,19.54 0 0 0 -1.6,4a38.59,38.59 0 0 0 -1,4c-0.27,1.34 -0.49,2.69 -0.68,4.05c-0.12,0.89 -0.2,1.83 -0.36,2.73a99.6,99.6 0 0 1 8.93,-10.34c0.07,-0.07 0.18,0.05 0.11,0.12a117.83,117.83 0 0 0 -13,17.65c-0.14,0.24 -0.27,0.48 -0.41,0.71c0.7,-0.44 1.51,-0.79 2.17,-1.15c1.24,-0.69 2.47,-1.38 3.72,-2.05s2.41,-1.31 3.61,-2c0.62,-0.34 1.23,-0.7 1.86,-1a13.91,13.91 0 0 0 2.17,-1.2c0.09,-0.07 0.2,0.08 0.09,0.14c-1.22,0.67 -2.31,1.67 -3.5,2.43s-2.4,1.49 -3.64,2.19c-2.27,1.26 -4.73,2.17 -7,3.48q-2.33,4.06 -4.3,8.33q2,-1.31 4.15,-2.48c0.9,-0.51 1.81,-1 2.72,-1.49a13.15,13.15 0 0 0 2.57,-1.56c0.08,-0.06 0.2,0.05 0.12,0.12a24.47,24.47 0 0 1 -4.9,3.42c-1.64,1 -3.3,1.88 -5,2.71q-2.06,4.49 -3.7,9.14c-5.3,15.19 -7.24,31.34 -8.24,47.37c-0.29,4.78 -0.43,9.56 -0.49,14.35s0.19,9.55 0.18,14.33c0,0.14 -0.23,0.17 -0.25,0c-0.57,-4.24 -0.67,-8.55 -0.86,-12.82s-0.16,-8.68 -0.06,-13.03z"/>
  <path id="svg_130" fill="#263238" d="m113.7,335.87a60.42,60.42 0 0 0 6.78,-3.51a68.6,68.6 0 0 0 6.44,-4.09s0.08,0 0,0.06a55.23,55.23 0 0 1 -6.18,4.33a61.57,61.57 0 0 1 -7,3.35c-0.06,0.05 -0.14,-0.1 -0.04,-0.14zm-3.7,-17.19c0.19,-0.75 0.43,-1.47 0.68,-2.2a0.06,0.06 0 0 1 0,-0.08c0.16,-0.41 0.33,-0.82 0.5,-1.23l0.06,-0.15c0,-0.07 0.07,-0.15 0.1,-0.23s-0.08,0.28 -0.13,0.42a1.68,1.68 0 0 1 -0.06,0.24a61.08,61.08 0 0 0 -1.9,8.66c0,0.09 -0.15,0.1 -0.15,0a30.28,30.28 0 0 1 0.9,-5.43z"/>
  <path id="svg_131" d="m77.03,407.8l0.91,10.79l2.79,32.92l29.86,0l2.79,-32.92l0.91,-10.79l-37.26,0z" fill="#455a64"/>
  <path id="svg_132" d="m77.03,407.8l0.91,10.79l35.44,0l0.91,-10.79l-37.26,0z" fill="#263238"/>
  <path id="svg_133" d="m117.21,413.82l-43.11,0l0,-10.35l43.11,0l0,10.35z" fill="#455a64"/>
 </g>
</svg>